<svg width="490" height="100" viewBox="0 0 490 100" fill="none" xmlns="http://www.w3.org/2000/svg">
<path d="M12.2061 7.188H9.05607L11.0721 2.364H13.1421L12.2061 7.188ZM16.2921 7.188H13.1601L15.1761 2.364H17.2281L16.2921 7.188ZM33.5364 2.364V15H30.4584V7.422L27.6324 15H25.1484L22.3044 7.404V15H19.2264V2.364H22.8624L26.4084 11.112L29.9184 2.364H33.5364ZM40.3218 15.144C39.3378 15.144 38.4498 14.934 37.6578 14.514C36.8778 14.094 36.2598 13.494 35.8038 12.714C35.3598 11.934 35.1378 11.022 35.1378 9.978C35.1378 8.946 35.3658 8.04 35.8218 7.26C36.2778 6.468 36.9018 5.862 37.6938 5.442C38.4858 5.022 39.3738 4.812 40.3578 4.812C41.3418 4.812 42.2298 5.022 43.0218 5.442C43.8138 5.862 44.4378 6.468 44.8938 7.26C45.3498 8.04 45.5778 8.946 45.5778 9.978C45.5778 11.01 45.3438 11.922 44.8758 12.714C44.4198 13.494 43.7898 14.094 42.9858 14.514C42.1938 14.934 41.3058 15.144 40.3218 15.144ZM40.3218 12.48C40.9098 12.48 41.4078 12.264 41.8158 11.832C42.2358 11.4 42.4458 10.782 42.4458 9.978C42.4458 9.174 42.2418 8.556 41.8338 8.124C41.4378 7.692 40.9458 7.476 40.3578 7.476C39.7578 7.476 39.2598 7.692 38.8638 8.124C38.4678 8.544 38.2698 9.162 38.2698 9.978C38.2698 10.782 38.4618 11.4 38.8458 11.832C39.2418 12.264 39.7338 12.48 40.3218 12.48ZM50.2887 6.63C50.6487 6.078 51.0987 5.646 51.6387 5.334C52.1787 5.01 52.7787 4.848 53.4387 4.848V8.106H52.5927C51.8247 8.106 51.2487 8.274 50.8647 8.61C50.4807 8.934 50.2887 9.51 50.2887 10.338V15H47.2107V4.956H50.2887V6.63ZM57.9879 6.378C58.2759 5.91 58.6899 5.532 59.2299 5.244C59.7699 4.956 60.3879 4.812 61.0839 4.812C61.9119 4.812 62.6619 5.022 63.3339 5.442C64.0059 5.862 64.5339 6.462 64.9179 7.242C65.3139 8.022 65.5119 8.928 65.5119 9.96C65.5119 10.992 65.3139 11.904 64.9179 12.696C64.5339 13.476 64.0059 14.082 63.3339 14.514C62.6619 14.934 61.9119 15.144 61.0839 15.144C60.3759 15.144 59.7579 15.006 59.2299 14.73C58.7019 14.442 58.2879 14.064 57.9879 13.596V15H54.9099V1.68H57.9879V6.378ZM62.3799 9.96C62.3799 9.192 62.1639 8.592 61.7319 8.16C61.3119 7.716 60.7899 7.494 60.1659 7.494C59.5539 7.494 59.0319 7.716 58.5999 8.16C58.1799 8.604 57.9699 9.21 57.9699 9.978C57.9699 10.746 58.1799 11.352 58.5999 11.796C59.0319 12.24 59.5539 12.462 60.1659 12.462C60.7779 12.462 61.2999 12.24 61.7319 11.796C62.1639 11.34 62.3799 10.728 62.3799 9.96ZM68.6747 3.912C68.1347 3.912 67.6907 3.756 67.3427 3.444C67.0067 3.12 66.8387 2.724 66.8387 2.256C66.8387 1.776 67.0067 1.38 67.3427 1.068C67.6907 0.743999 68.1347 0.581999 68.6747 0.581999C69.2027 0.581999 69.6347 0.743999 69.9707 1.068C70.3187 1.38 70.4927 1.776 70.4927 2.256C70.4927 2.724 70.3187 3.12 69.9707 3.444C69.6347 3.756 69.2027 3.912 68.6747 3.912ZM70.2047 4.956V15H67.1267V4.956H70.2047ZM80.3358 15.144C79.4598 15.144 78.6798 14.994 77.9958 14.694C77.3118 14.394 76.7718 13.986 76.3758 13.47C75.9798 12.942 75.7578 12.354 75.7098 11.706H78.7518C78.7878 12.054 78.9498 12.336 79.2378 12.552C79.5258 12.768 79.8798 12.876 80.2998 12.876C80.6838 12.876 80.9778 12.804 81.1818 12.66C81.3978 12.504 81.5058 12.306 81.5058 12.066C81.5058 11.778 81.3558 11.568 81.0558 11.436C80.7558 11.292 80.2698 11.136 79.5978 10.968C78.8778 10.8 78.2778 10.626 77.7978 10.446C77.3178 10.254 76.9038 9.96 76.5558 9.564C76.2078 9.156 76.0338 8.61 76.0338 7.926C76.0338 7.35 76.1898 6.828 76.5018 6.36C76.8258 5.88 77.2938 5.502 77.9058 5.226C78.5298 4.95 79.2678 4.812 80.1198 4.812C81.3798 4.812 82.3698 5.124 83.0898 5.748C83.8218 6.372 84.2418 7.2 84.3498 8.232H81.5058C81.4578 7.884 81.3018 7.608 81.0378 7.404C80.7858 7.2 80.4498 7.098 80.0298 7.098C79.6698 7.098 79.3938 7.17 79.2018 7.314C79.0098 7.446 78.9138 7.632 78.9138 7.872C78.9138 8.16 79.0638 8.376 79.3638 8.52C79.6758 8.664 80.1558 8.808 80.8038 8.952C81.5478 9.144 82.1538 9.336 82.6218 9.528C83.0898 9.708 83.4978 10.008 83.8458 10.428C84.2058 10.836 84.3918 11.388 84.4038 12.084C84.4038 12.672 84.2358 13.2 83.8998 13.668C83.5758 14.124 83.1018 14.484 82.4778 14.748C81.8658 15.012 81.1518 15.144 80.3358 15.144ZM85.6749 9.96C85.6749 8.928 85.8669 8.022 86.2509 7.242C86.6469 6.462 87.1809 5.862 87.8529 5.442C88.5249 5.022 89.2749 4.812 90.1029 4.812C90.8109 4.812 91.4289 4.956 91.9569 5.244C92.4969 5.532 92.9109 5.91 93.1989 6.378V4.956H96.2769V15H93.1989V13.578C92.8989 14.046 92.4789 14.424 91.9389 14.712C91.4109 15 90.7929 15.144 90.0849 15.144C89.2689 15.144 88.5249 14.934 87.8529 14.514C87.1809 14.082 86.6469 13.476 86.2509 12.696C85.8669 11.904 85.6749 10.992 85.6749 9.96ZM93.1989 9.978C93.1989 9.21 92.9829 8.604 92.5509 8.16C92.1309 7.716 91.6149 7.494 91.0029 7.494C90.3909 7.494 89.8689 7.716 89.4369 8.16C89.0169 8.592 88.8069 9.192 88.8069 9.96C88.8069 10.728 89.0169 11.34 89.4369 11.796C89.8689 12.24 90.3909 12.462 91.0029 12.462C91.6149 12.462 92.1309 12.24 92.5509 11.796C92.9829 11.352 93.1989 10.746 93.1989 9.978ZM102.32 4.812C103.028 4.812 103.646 4.956 104.174 5.244C104.714 5.532 105.128 5.91 105.416 6.378V4.956H108.494V14.982C108.494 15.906 108.308 16.74 107.936 17.484C107.576 18.24 107.018 18.84 106.262 19.284C105.518 19.728 104.588 19.95 103.472 19.95C101.984 19.95 100.778 19.596 99.8537 18.888C98.9297 18.192 98.4017 17.244 98.2697 16.044H101.312C101.408 16.428 101.636 16.728 101.996 16.944C102.356 17.172 102.8 17.286 103.328 17.286C103.964 17.286 104.468 17.1 104.84 16.728C105.224 16.368 105.416 15.786 105.416 14.982V13.56C105.116 14.028 104.702 14.412 104.174 14.712C103.646 15 103.028 15.144 102.32 15.144C101.492 15.144 100.742 14.934 100.07 14.514C99.3977 14.082 98.8637 13.476 98.4677 12.696C98.0837 11.904 97.8917 10.992 97.8917 9.96C97.8917 8.928 98.0837 8.022 98.4677 7.242C98.8637 6.462 99.3977 5.862 100.07 5.442C100.742 5.022 101.492 4.812 102.32 4.812ZM105.416 9.978C105.416 9.21 105.2 8.604 104.768 8.16C104.348 7.716 103.832 7.494 103.22 7.494C102.608 7.494 102.086 7.716 101.654 8.16C101.234 8.592 101.024 9.192 101.024 9.96C101.024 10.728 101.234 11.34 101.654 11.796C102.086 12.24 102.608 12.462 103.22 12.462C103.832 12.462 104.348 12.24 104.768 11.796C105.2 11.352 105.416 10.746 105.416 9.978ZM112.268 3.912C111.728 3.912 111.284 3.756 110.936 3.444C110.6 3.12 110.432 2.724 110.432 2.256C110.432 1.776 110.6 1.38 110.936 1.068C111.284 0.743999 111.728 0.581999 112.268 0.581999C112.796 0.581999 113.228 0.743999 113.564 1.068C113.912 1.38 114.086 1.776 114.086 2.256C114.086 2.724 113.912 3.12 113.564 3.444C113.228 3.756 112.796 3.912 112.268 3.912ZM113.798 4.956V15H110.72V4.956H113.798ZM121.627 12.39V15H120.061C118.945 15 118.075 14.73 117.451 14.19C116.827 13.638 116.515 12.744 116.515 11.508V7.512H115.291V4.956H116.515V2.508H119.593V4.956H121.609V7.512H119.593V11.544C119.593 11.844 119.665 12.06 119.809 12.192C119.953 12.324 120.193 12.39 120.529 12.39H121.627ZM128.94 12.39V15H127.374C126.258 15 125.388 14.73 124.764 14.19C124.14 13.638 123.828 12.744 123.828 11.508V7.512H122.604V4.956H123.828V2.508H126.906V4.956H128.922V7.512H126.906V11.544C126.906 11.844 126.978 12.06 127.122 12.192C127.266 12.324 127.506 12.39 127.842 12.39H128.94ZM132.202 3.912C131.662 3.912 131.218 3.756 130.87 3.444C130.534 3.12 130.366 2.724 130.366 2.256C130.366 1.776 130.534 1.38 130.87 1.068C131.218 0.743999 131.662 0.581999 132.202 0.581999C132.73 0.581999 133.162 0.743999 133.498 1.068C133.846 1.38 134.02 1.776 134.02 2.256C134.02 2.724 133.846 3.12 133.498 3.444C133.162 3.756 132.73 3.912 132.202 3.912ZM133.732 4.956V15H130.654V4.956H133.732ZM140.049 15.144C139.173 15.144 138.393 14.994 137.709 14.694C137.025 14.394 136.485 13.986 136.089 13.47C135.693 12.942 135.471 12.354 135.423 11.706H138.465C138.501 12.054 138.663 12.336 138.951 12.552C139.239 12.768 139.593 12.876 140.013 12.876C140.397 12.876 140.691 12.804 140.895 12.66C141.111 12.504 141.219 12.306 141.219 12.066C141.219 11.778 141.069 11.568 140.769 11.436C140.469 11.292 139.983 11.136 139.311 10.968C138.591 10.8 137.991 10.626 137.511 10.446C137.031 10.254 136.617 9.96 136.269 9.564C135.921 9.156 135.747 8.61 135.747 7.926C135.747 7.35 135.903 6.828 136.215 6.36C136.539 5.88 137.007 5.502 137.619 5.226C138.243 4.95 138.981 4.812 139.833 4.812C141.093 4.812 142.083 5.124 142.803 5.748C143.535 6.372 143.955 7.2 144.063 8.232H141.219C141.171 7.884 141.015 7.608 140.751 7.404C140.499 7.2 140.163 7.098 139.743 7.098C139.383 7.098 139.107 7.17 138.915 7.314C138.723 7.446 138.627 7.632 138.627 7.872C138.627 8.16 138.777 8.376 139.077 8.52C139.389 8.664 139.869 8.808 140.517 8.952C141.261 9.144 141.867 9.336 142.335 9.528C142.803 9.708 143.211 10.008 143.559 10.428C143.919 10.836 144.105 11.388 144.117 12.084C144.117 12.672 143.949 13.2 143.613 13.668C143.289 14.124 142.815 14.484 142.191 14.748C141.579 15.012 140.865 15.144 140.049 15.144ZM159.732 4.956V15H156.654V13.632C156.342 14.076 155.916 14.436 155.376 14.712C154.848 14.976 154.26 15.108 153.612 15.108C152.844 15.108 152.166 14.94 151.578 14.604C150.99 14.256 150.534 13.758 150.21 13.11C149.886 12.462 149.724 11.7 149.724 10.824V4.956H152.784V10.41C152.784 11.082 152.958 11.604 153.306 11.976C153.654 12.348 154.122 12.534 154.71 12.534C155.31 12.534 155.784 12.348 156.132 11.976C156.48 11.604 156.654 11.082 156.654 10.41V4.956H159.732ZM165.021 1.68V15H161.943V1.68H165.021ZM172.85 12.39V15H171.284C170.168 15 169.298 14.73 168.674 14.19C168.05 13.638 167.738 12.744 167.738 11.508V7.512H166.514V4.956H167.738V2.508H170.816V4.956H172.832V7.512H170.816V11.544C170.816 11.844 170.888 12.06 171.032 12.192C171.176 12.324 171.416 12.39 171.752 12.39H172.85ZM177.642 6.63C178.002 6.078 178.452 5.646 178.992 5.334C179.532 5.01 180.132 4.848 180.792 4.848V8.106H179.946C179.178 8.106 178.602 8.274 178.218 8.61C177.834 8.934 177.642 9.51 177.642 10.338V15H174.564V4.956H177.642V6.63ZM183.811 3.912C183.271 3.912 182.827 3.756 182.479 3.444C182.143 3.12 181.975 2.724 181.975 2.256C181.975 1.776 182.143 1.38 182.479 1.068C182.827 0.743999 183.271 0.581999 183.811 0.581999C184.339 0.581999 184.771 0.743999 185.107 1.068C185.455 1.38 185.629 1.776 185.629 2.256C185.629 2.724 185.455 3.12 185.107 3.444C184.771 3.756 184.339 3.912 183.811 3.912ZM185.341 4.956V15H182.263V4.956H185.341ZM186.96 9.978C186.96 8.934 187.17 8.022 187.59 7.242C188.022 6.462 188.616 5.862 189.372 5.442C190.14 5.022 191.016 4.812 192 4.812C193.26 4.812 194.31 5.142 195.15 5.802C196.002 6.462 196.56 7.392 196.824 8.592H193.548C193.272 7.824 192.738 7.44 191.946 7.44C191.382 7.44 190.932 7.662 190.596 8.106C190.26 8.538 190.092 9.162 190.092 9.978C190.092 10.794 190.26 11.424 190.596 11.868C190.932 12.3 191.382 12.516 191.946 12.516C192.738 12.516 193.272 12.132 193.548 11.364H196.824C196.56 12.54 196.002 13.464 195.15 14.136C194.298 14.808 193.248 15.144 192 15.144C191.016 15.144 190.14 14.934 189.372 14.514C188.616 14.094 188.022 13.494 187.59 12.714C187.17 11.934 186.96 11.022 186.96 9.978ZM200.018 3.912C199.478 3.912 199.034 3.756 198.686 3.444C198.35 3.12 198.182 2.724 198.182 2.256C198.182 1.776 198.35 1.38 198.686 1.068C199.034 0.743999 199.478 0.581999 200.018 0.581999C200.546 0.581999 200.978 0.743999 201.314 1.068C201.662 1.38 201.836 1.776 201.836 2.256C201.836 2.724 201.662 3.12 201.314 3.444C200.978 3.756 200.546 3.912 200.018 3.912ZM201.548 4.956V15H198.47V4.956H201.548ZM213.247 9.816C213.247 10.104 213.229 10.404 213.193 10.716H206.227C206.275 11.34 206.473 11.82 206.821 12.156C207.181 12.48 207.619 12.642 208.135 12.642C208.903 12.642 209.437 12.318 209.737 11.67H213.013C212.845 12.33 212.539 12.924 212.095 13.452C211.663 13.98 211.117 14.394 210.457 14.694C209.797 14.994 209.059 15.144 208.243 15.144C207.259 15.144 206.383 14.934 205.615 14.514C204.847 14.094 204.247 13.494 203.815 12.714C203.383 11.934 203.167 11.022 203.167 9.978C203.167 8.934 203.377 8.022 203.797 7.242C204.229 6.462 204.829 5.862 205.597 5.442C206.365 5.022 207.247 4.812 208.243 4.812C209.215 4.812 210.079 5.016 210.835 5.424C211.591 5.832 212.179 6.414 212.599 7.17C213.031 7.926 213.247 8.808 213.247 9.816ZM210.097 9.006C210.097 8.478 209.917 8.058 209.557 7.746C209.197 7.434 208.747 7.278 208.207 7.278C207.691 7.278 207.253 7.428 206.893 7.728C206.545 8.028 206.329 8.454 206.245 9.006H210.097ZM218.957 15.144C218.081 15.144 217.301 14.994 216.617 14.694C215.933 14.394 215.393 13.986 214.997 13.47C214.601 12.942 214.379 12.354 214.331 11.706H217.373C217.409 12.054 217.571 12.336 217.859 12.552C218.147 12.768 218.501 12.876 218.921 12.876C219.305 12.876 219.599 12.804 219.803 12.66C220.019 12.504 220.127 12.306 220.127 12.066C220.127 11.778 219.977 11.568 219.677 11.436C219.377 11.292 218.891 11.136 218.219 10.968C217.499 10.8 216.899 10.626 216.419 10.446C215.939 10.254 215.525 9.96 215.177 9.564C214.829 9.156 214.655 8.61 214.655 7.926C214.655 7.35 214.811 6.828 215.123 6.36C215.447 5.88 215.915 5.502 216.527 5.226C217.151 4.95 217.889 4.812 218.741 4.812C220.001 4.812 220.991 5.124 221.711 5.748C222.443 6.372 222.863 7.2 222.971 8.232H220.127C220.079 7.884 219.923 7.608 219.659 7.404C219.407 7.2 219.071 7.098 218.651 7.098C218.291 7.098 218.015 7.17 217.823 7.314C217.631 7.446 217.535 7.632 217.535 7.872C217.535 8.16 217.685 8.376 217.985 8.52C218.297 8.664 218.777 8.808 219.425 8.952C220.169 9.144 220.775 9.336 221.243 9.528C221.711 9.708 222.119 10.008 222.467 10.428C222.827 10.836 223.013 11.388 223.025 12.084C223.025 12.672 222.857 13.2 222.521 13.668C222.197 14.124 221.723 14.484 221.099 14.748C220.487 15.012 219.773 15.144 218.957 15.144ZM238.19 9.816C238.19 10.104 238.172 10.404 238.136 10.716H231.17C231.218 11.34 231.416 11.82 231.764 12.156C232.124 12.48 232.562 12.642 233.078 12.642C233.846 12.642 234.38 12.318 234.68 11.67H237.956C237.788 12.33 237.482 12.924 237.038 13.452C236.606 13.98 236.06 14.394 235.4 14.694C234.74 14.994 234.002 15.144 233.186 15.144C232.202 15.144 231.326 14.934 230.558 14.514C229.79 14.094 229.19 13.494 228.758 12.714C228.326 11.934 228.11 11.022 228.11 9.978C228.11 8.934 228.32 8.022 228.74 7.242C229.172 6.462 229.772 5.862 230.54 5.442C231.308 5.022 232.19 4.812 233.186 4.812C234.158 4.812 235.022 5.016 235.778 5.424C236.534 5.832 237.122 6.414 237.542 7.17C237.974 7.926 238.19 8.808 238.19 9.816ZM235.04 9.006C235.04 8.478 234.86 8.058 234.5 7.746C234.14 7.434 233.69 7.278 233.15 7.278C232.634 7.278 232.196 7.428 231.836 7.728C231.488 8.028 231.272 8.454 231.188 9.006H235.04ZM245.754 15L243.828 12.21L242.208 15H238.878L242.19 9.87L238.788 4.956H242.244L244.17 7.728L245.79 4.956H249.12L245.754 10.014L249.21 15H245.754ZM253.708 12.156L251.71 17.322H249.748L250.792 12.156H253.708ZM258.767 9.96C258.767 8.928 258.959 8.022 259.343 7.242C259.739 6.462 260.273 5.862 260.945 5.442C261.617 5.022 262.367 4.812 263.195 4.812C263.903 4.812 264.521 4.956 265.049 5.244C265.589 5.532 266.003 5.91 266.291 6.378V4.956H269.369V15H266.291V13.578C265.991 14.046 265.571 14.424 265.031 14.712C264.503 15 263.885 15.144 263.177 15.144C262.361 15.144 261.617 14.934 260.945 14.514C260.273 14.082 259.739 13.476 259.343 12.696C258.959 11.904 258.767 10.992 258.767 9.96ZM266.291 9.978C266.291 9.21 266.075 8.604 265.643 8.16C265.223 7.716 264.707 7.494 264.095 7.494C263.483 7.494 262.961 7.716 262.529 8.16C262.109 8.592 261.899 9.192 261.899 9.96C261.899 10.728 262.109 11.34 262.529 11.796C262.961 12.24 263.483 12.462 264.095 12.462C264.707 12.462 265.223 12.24 265.643 11.796C266.075 11.352 266.291 10.746 266.291 9.978ZM281.008 12.39V15H279.442C278.326 15 277.456 14.73 276.832 14.19C276.208 13.638 275.896 12.744 275.896 11.508V7.512H274.672V4.956H275.896V2.508H278.974V4.956H280.99V7.512H278.974V11.544C278.974 11.844 279.046 12.06 279.19 12.192C279.334 12.324 279.574 12.39 279.91 12.39H281.008ZM292.19 9.816C292.19 10.104 292.172 10.404 292.136 10.716H285.17C285.218 11.34 285.416 11.82 285.764 12.156C286.124 12.48 286.562 12.642 287.078 12.642C287.846 12.642 288.38 12.318 288.68 11.67H291.956C291.788 12.33 291.482 12.924 291.038 13.452C290.606 13.98 290.06 14.394 289.4 14.694C288.74 14.994 288.002 15.144 287.186 15.144C286.202 15.144 285.326 14.934 284.558 14.514C283.79 14.094 283.19 13.494 282.758 12.714C282.326 11.934 282.11 11.022 282.11 9.978C282.11 8.934 282.32 8.022 282.74 7.242C283.172 6.462 283.772 5.862 284.54 5.442C285.308 5.022 286.19 4.812 287.186 4.812C288.158 4.812 289.022 5.016 289.778 5.424C290.534 5.832 291.122 6.414 291.542 7.17C291.974 7.926 292.19 8.808 292.19 9.816ZM289.04 9.006C289.04 8.478 288.86 8.058 288.5 7.746C288.14 7.434 287.69 7.278 287.15 7.278C286.634 7.278 286.196 7.428 285.836 7.728C285.488 8.028 285.272 8.454 285.188 9.006H289.04ZM306.63 4.848C307.878 4.848 308.868 5.226 309.6 5.982C310.344 6.738 310.716 7.788 310.716 9.132V15H307.656V9.546C307.656 8.898 307.482 8.4 307.134 8.052C306.798 7.692 306.33 7.512 305.73 7.512C305.13 7.512 304.656 7.692 304.308 8.052C303.972 8.4 303.804 8.898 303.804 9.546V15H300.744V9.546C300.744 8.898 300.57 8.4 300.222 8.052C299.886 7.692 299.418 7.512 298.818 7.512C298.218 7.512 297.744 7.692 297.396 8.052C297.06 8.4 296.892 8.898 296.892 9.546V15H293.814V4.956H296.892V6.216C297.204 5.796 297.612 5.466 298.116 5.226C298.62 4.974 299.19 4.848 299.826 4.848C300.582 4.848 301.254 5.01 301.842 5.334C302.442 5.658 302.91 6.12 303.246 6.72C303.594 6.168 304.068 5.718 304.668 5.37C305.268 5.022 305.922 4.848 306.63 4.848ZM315.947 6.378C316.247 5.91 316.661 5.532 317.189 5.244C317.717 4.956 318.335 4.812 319.043 4.812C319.871 4.812 320.621 5.022 321.293 5.442C321.965 5.862 322.493 6.462 322.877 7.242C323.273 8.022 323.471 8.928 323.471 9.96C323.471 10.992 323.273 11.904 322.877 12.696C322.493 13.476 321.965 14.082 321.293 14.514C320.621 14.934 319.871 15.144 319.043 15.144C318.347 15.144 317.729 15 317.189 14.712C316.661 14.424 316.247 14.052 315.947 13.596V19.788H312.869V4.956H315.947V6.378ZM320.339 9.96C320.339 9.192 320.123 8.592 319.691 8.16C319.271 7.716 318.749 7.494 318.125 7.494C317.513 7.494 316.991 7.716 316.559 8.16C316.139 8.604 315.929 9.21 315.929 9.978C315.929 10.746 316.139 11.352 316.559 11.796C316.991 12.24 317.513 12.462 318.125 12.462C318.737 12.462 319.259 12.24 319.691 11.796C320.123 11.34 320.339 10.728 320.339 9.96ZM335.004 4.956V15H331.926V13.632C331.614 14.076 331.188 14.436 330.648 14.712C330.12 14.976 329.532 15.108 328.884 15.108C328.116 15.108 327.438 14.94 326.85 14.604C326.262 14.256 325.806 13.758 325.482 13.11C325.158 12.462 324.996 11.7 324.996 10.824V4.956H328.056V10.41C328.056 11.082 328.23 11.604 328.578 11.976C328.926 12.348 329.394 12.534 329.982 12.534C330.582 12.534 331.056 12.348 331.404 11.976C331.752 11.604 331.926 11.082 331.926 10.41V4.956H335.004ZM341.301 15.144C340.425 15.144 339.645 14.994 338.961 14.694C338.277 14.394 337.737 13.986 337.341 13.47C336.945 12.942 336.723 12.354 336.675 11.706H339.717C339.753 12.054 339.915 12.336 340.203 12.552C340.491 12.768 340.845 12.876 341.265 12.876C341.649 12.876 341.943 12.804 342.147 12.66C342.363 12.504 342.471 12.306 342.471 12.066C342.471 11.778 342.321 11.568 342.021 11.436C341.721 11.292 341.235 11.136 340.563 10.968C339.843 10.8 339.243 10.626 338.763 10.446C338.283 10.254 337.869 9.96 337.521 9.564C337.173 9.156 336.999 8.61 336.999 7.926C336.999 7.35 337.155 6.828 337.467 6.36C337.791 5.88 338.259 5.502 338.871 5.226C339.495 4.95 340.233 4.812 341.085 4.812C342.345 4.812 343.335 5.124 344.055 5.748C344.787 6.372 345.207 7.2 345.315 8.232H342.471C342.423 7.884 342.267 7.608 342.003 7.404C341.751 7.2 341.415 7.098 340.995 7.098C340.635 7.098 340.359 7.17 340.167 7.314C339.975 7.446 339.879 7.632 339.879 7.872C339.879 8.16 340.029 8.376 340.329 8.52C340.641 8.664 341.121 8.808 341.769 8.952C342.513 9.144 343.119 9.336 343.587 9.528C344.055 9.708 344.463 10.008 344.811 10.428C345.171 10.836 345.357 11.388 345.369 12.084C345.369 12.672 345.201 13.2 344.865 13.668C344.541 14.124 344.067 14.484 343.443 14.748C342.831 15.012 342.117 15.144 341.301 15.144ZM354.144 1.68V15H351.066V1.68H354.144ZM360.947 15.144C359.963 15.144 359.075 14.934 358.283 14.514C357.503 14.094 356.885 13.494 356.429 12.714C355.985 11.934 355.763 11.022 355.763 9.978C355.763 8.946 355.991 8.04 356.447 7.26C356.903 6.468 357.527 5.862 358.319 5.442C359.111 5.022 359.999 4.812 360.983 4.812C361.967 4.812 362.855 5.022 363.647 5.442C364.439 5.862 365.063 6.468 365.519 7.26C365.975 8.04 366.203 8.946 366.203 9.978C366.203 11.01 365.969 11.922 365.501 12.714C365.045 13.494 364.415 14.094 363.611 14.514C362.819 14.934 361.931 15.144 360.947 15.144ZM360.947 12.48C361.535 12.48 362.033 12.264 362.441 11.832C362.861 11.4 363.071 10.782 363.071 9.978C363.071 9.174 362.867 8.556 362.459 8.124C362.063 7.692 361.571 7.476 360.983 7.476C360.383 7.476 359.885 7.692 359.489 8.124C359.093 8.544 358.895 9.162 358.895 9.978C358.895 10.782 359.087 11.4 359.471 11.832C359.867 12.264 360.359 12.48 360.947 12.48ZM370.914 6.63C371.274 6.078 371.724 5.646 372.264 5.334C372.804 5.01 373.404 4.848 374.064 4.848V8.106H373.218C372.45 8.106 371.874 8.274 371.49 8.61C371.106 8.934 370.914 9.51 370.914 10.338V15H367.836V4.956H370.914V6.63ZM385.003 9.816C385.003 10.104 384.985 10.404 384.949 10.716H377.983C378.031 11.34 378.229 11.82 378.577 12.156C378.937 12.48 379.375 12.642 379.891 12.642C380.659 12.642 381.193 12.318 381.493 11.67H384.769C384.601 12.33 384.295 12.924 383.851 13.452C383.419 13.98 382.873 14.394 382.213 14.694C381.553 14.994 380.815 15.144 379.999 15.144C379.015 15.144 378.139 14.934 377.371 14.514C376.603 14.094 376.003 13.494 375.571 12.714C375.139 11.934 374.923 11.022 374.923 9.978C374.923 8.934 375.133 8.022 375.553 7.242C375.985 6.462 376.585 5.862 377.353 5.442C378.121 5.022 379.003 4.812 379.999 4.812C380.971 4.812 381.835 5.016 382.591 5.424C383.347 5.832 383.935 6.414 384.355 7.17C384.787 7.926 385.003 8.808 385.003 9.816ZM381.853 9.006C381.853 8.478 381.673 8.058 381.313 7.746C380.953 7.434 380.503 7.278 379.963 7.278C379.447 7.278 379.009 7.428 378.649 7.728C378.301 8.028 378.085 8.454 378.001 9.006H381.853ZM399.443 4.848C400.691 4.848 401.681 5.226 402.413 5.982C403.157 6.738 403.529 7.788 403.529 9.132V15H400.469V9.546C400.469 8.898 400.295 8.4 399.947 8.052C399.611 7.692 399.143 7.512 398.543 7.512C397.943 7.512 397.469 7.692 397.121 8.052C396.785 8.4 396.617 8.898 396.617 9.546V15H393.557V9.546C393.557 8.898 393.383 8.4 393.035 8.052C392.699 7.692 392.231 7.512 391.631 7.512C391.031 7.512 390.557 7.692 390.209 8.052C389.873 8.4 389.705 8.898 389.705 9.546V15H386.627V4.956H389.705V6.216C390.017 5.796 390.425 5.466 390.929 5.226C391.433 4.974 392.003 4.848 392.639 4.848C393.395 4.848 394.067 5.01 394.655 5.334C395.255 5.658 395.723 6.12 396.059 6.72C396.407 6.168 396.881 5.718 397.481 5.37C398.081 5.022 398.735 4.848 399.443 4.848ZM413.582 15.144C412.706 15.144 411.926 14.994 411.242 14.694C410.558 14.394 410.018 13.986 409.622 13.47C409.226 12.942 409.004 12.354 408.956 11.706H411.998C412.034 12.054 412.196 12.336 412.484 12.552C412.772 12.768 413.126 12.876 413.546 12.876C413.93 12.876 414.224 12.804 414.428 12.66C414.644 12.504 414.752 12.306 414.752 12.066C414.752 11.778 414.602 11.568 414.302 11.436C414.002 11.292 413.516 11.136 412.844 10.968C412.124 10.8 411.524 10.626 411.044 10.446C410.564 10.254 410.15 9.96 409.802 9.564C409.454 9.156 409.28 8.61 409.28 7.926C409.28 7.35 409.436 6.828 409.748 6.36C410.072 5.88 410.54 5.502 411.152 5.226C411.776 4.95 412.514 4.812 413.366 4.812C414.626 4.812 415.616 5.124 416.336 5.748C417.068 6.372 417.488 7.2 417.596 8.232H414.752C414.704 7.884 414.548 7.608 414.284 7.404C414.032 7.2 413.696 7.098 413.276 7.098C412.916 7.098 412.64 7.17 412.448 7.314C412.256 7.446 412.16 7.632 412.16 7.872C412.16 8.16 412.31 8.376 412.61 8.52C412.922 8.664 413.402 8.808 414.05 8.952C414.794 9.144 415.4 9.336 415.868 9.528C416.336 9.708 416.744 10.008 417.092 10.428C417.452 10.836 417.638 11.388 417.65 12.084C417.65 12.672 417.482 13.2 417.146 13.668C416.822 14.124 416.348 14.484 415.724 14.748C415.112 15.012 414.398 15.144 413.582 15.144ZM429.451 4.956V15H426.373V13.632C426.061 14.076 425.635 14.436 425.095 14.712C424.567 14.976 423.979 15.108 423.331 15.108C422.563 15.108 421.885 14.94 421.297 14.604C420.709 14.256 420.253 13.758 419.929 13.11C419.605 12.462 419.443 11.7 419.443 10.824V4.956H422.503V10.41C422.503 11.082 422.677 11.604 423.025 11.976C423.373 12.348 423.841 12.534 424.429 12.534C425.029 12.534 425.503 12.348 425.851 11.976C426.199 11.604 426.373 11.082 426.373 10.41V4.956H429.451ZM435.748 15.144C434.872 15.144 434.092 14.994 433.408 14.694C432.724 14.394 432.184 13.986 431.788 13.47C431.392 12.942 431.17 12.354 431.122 11.706H434.164C434.2 12.054 434.362 12.336 434.65 12.552C434.938 12.768 435.292 12.876 435.712 12.876C436.096 12.876 436.39 12.804 436.594 12.66C436.81 12.504 436.918 12.306 436.918 12.066C436.918 11.778 436.768 11.568 436.468 11.436C436.168 11.292 435.682 11.136 435.01 10.968C434.29 10.8 433.69 10.626 433.21 10.446C432.73 10.254 432.316 9.96 431.968 9.564C431.62 9.156 431.446 8.61 431.446 7.926C431.446 7.35 431.602 6.828 431.914 6.36C432.238 5.88 432.706 5.502 433.318 5.226C433.942 4.95 434.68 4.812 435.532 4.812C436.792 4.812 437.782 5.124 438.502 5.748C439.234 6.372 439.654 7.2 439.762 8.232H436.918C436.87 7.884 436.714 7.608 436.45 7.404C436.198 7.2 435.862 7.098 435.442 7.098C435.082 7.098 434.806 7.17 434.614 7.314C434.422 7.446 434.326 7.632 434.326 7.872C434.326 8.16 434.476 8.376 434.776 8.52C435.088 8.664 435.568 8.808 436.216 8.952C436.96 9.144 437.566 9.336 438.034 9.528C438.502 9.708 438.91 10.008 439.258 10.428C439.618 10.836 439.804 11.388 439.816 12.084C439.816 12.672 439.648 13.2 439.312 13.668C438.988 14.124 438.514 14.484 437.89 14.748C437.278 15.012 436.564 15.144 435.748 15.144ZM441.087 9.978C441.087 8.934 441.297 8.022 441.717 7.242C442.149 6.462 442.743 5.862 443.499 5.442C444.267 5.022 445.143 4.812 446.127 4.812C447.387 4.812 448.437 5.142 449.277 5.802C450.129 6.462 450.687 7.392 450.951 8.592H447.675C447.399 7.824 446.865 7.44 446.073 7.44C445.509 7.44 445.059 7.662 444.723 8.106C444.387 8.538 444.219 9.162 444.219 9.978C444.219 10.794 444.387 11.424 444.723 11.868C445.059 12.3 445.509 12.516 446.073 12.516C446.865 12.516 447.399 12.132 447.675 11.364H450.951C450.687 12.54 450.129 13.464 449.277 14.136C448.425 14.808 447.375 15.144 446.127 15.144C445.143 15.144 444.267 14.934 443.499 14.514C442.743 14.094 442.149 13.494 441.717 12.714C441.297 11.934 441.087 11.022 441.087 9.978ZM454.145 3.912C453.605 3.912 453.161 3.756 452.813 3.444C452.477 3.12 452.309 2.724 452.309 2.256C452.309 1.776 452.477 1.38 452.813 1.068C453.161 0.743999 453.605 0.581999 454.145 0.581999C454.673 0.581999 455.105 0.743999 455.441 1.068C455.789 1.38 455.963 1.776 455.963 2.256C455.963 2.724 455.789 3.12 455.441 3.444C455.105 3.756 454.673 3.912 454.145 3.912ZM455.675 4.956V15H452.597V4.956H455.675ZM460.984 6.378C461.284 5.91 461.698 5.532 462.226 5.244C462.754 4.956 463.372 4.812 464.08 4.812C464.908 4.812 465.658 5.022 466.33 5.442C467.002 5.862 467.53 6.462 467.914 7.242C468.31 8.022 468.508 8.928 468.508 9.96C468.508 10.992 468.31 11.904 467.914 12.696C467.53 13.476 467.002 14.082 466.33 14.514C465.658 14.934 464.908 15.144 464.08 15.144C463.384 15.144 462.766 15 462.226 14.712C461.698 14.424 461.284 14.052 460.984 13.596V19.788H457.906V4.956H460.984V6.378ZM465.376 9.96C465.376 9.192 465.16 8.592 464.728 8.16C464.308 7.716 463.786 7.494 463.162 7.494C462.55 7.494 462.028 7.716 461.596 8.16C461.176 8.604 460.966 9.21 460.966 9.978C460.966 10.746 461.176 11.352 461.596 11.796C462.028 12.24 462.55 12.462 463.162 12.462C463.774 12.462 464.296 12.24 464.728 11.796C465.16 11.34 465.376 10.728 465.376 9.96ZM471.671 3.912C471.131 3.912 470.687 3.756 470.339 3.444C470.003 3.12 469.835 2.724 469.835 2.256C469.835 1.776 470.003 1.38 470.339 1.068C470.687 0.743999 471.131 0.581999 471.671 0.581999C472.199 0.581999 472.631 0.743999 472.967 1.068C473.315 1.38 473.489 1.776 473.489 2.256C473.489 2.724 473.315 3.12 472.967 3.444C472.631 3.756 472.199 3.912 471.671 3.912ZM473.201 4.956V15H470.123V4.956H473.201ZM481.029 12.39V15H479.463C478.347 15 477.477 14.73 476.853 14.19C476.229 13.638 475.917 12.744 475.917 11.508V7.512H474.693V4.956H475.917V2.508H478.995V4.956H481.011V7.512H478.995V11.544C478.995 11.844 479.067 12.06 479.211 12.192C479.355 12.324 479.595 12.39 479.931 12.39H481.029ZM6.54655 44.848C7.72255 44.848 8.65855 45.232 9.35455 46C10.0625 46.756 10.4165 47.8 10.4165 49.132V55H7.35655V49.546C7.35655 48.874 7.18255 48.352 6.83455 47.98C6.48655 47.608 6.01855 47.422 5.43055 47.422C4.84255 47.422 4.37455 47.608 4.02655 47.98C3.67855 48.352 3.50455 48.874 3.50455 49.546V55H0.426547V44.956H3.50455V46.288C3.81655 45.844 4.23655 45.496 4.76455 45.244C5.29255 44.98 5.88655 44.848 6.54655 44.848ZM17.1275 55.144C16.1435 55.144 15.2555 54.934 14.4635 54.514C13.6835 54.094 13.0655 53.494 12.6095 52.714C12.1655 51.934 11.9435 51.022 11.9435 49.978C11.9435 48.946 12.1715 48.04 12.6275 47.26C13.0835 46.468 13.7075 45.862 14.4995 45.442C15.2915 45.022 16.1795 44.812 17.1635 44.812C18.1475 44.812 19.0355 45.022 19.8275 45.442C20.6195 45.862 21.2435 46.468 21.6995 47.26C22.1555 48.04 22.3835 48.946 22.3835 49.978C22.3835 51.01 22.1495 51.922 21.6815 52.714C21.2255 53.494 20.5955 54.094 19.7915 54.514C18.9995 54.934 18.1115 55.144 17.1275 55.144ZM17.1275 52.48C17.7155 52.48 18.2135 52.264 18.6215 51.832C19.0415 51.4 19.2515 50.782 19.2515 49.978C19.2515 49.174 19.0475 48.556 18.6395 48.124C18.2435 47.692 17.7515 47.476 17.1635 47.476C16.5635 47.476 16.0655 47.692 15.6695 48.124C15.2735 48.544 15.0755 49.162 15.0755 49.978C15.0755 50.782 15.2675 51.4 15.6515 51.832C16.0475 52.264 16.5395 52.48 17.1275 52.48ZM30.1364 44.848C31.3124 44.848 32.2484 45.232 32.9444 46C33.6524 46.756 34.0064 47.8 34.0064 49.132V55H30.9464V49.546C30.9464 48.874 30.7724 48.352 30.4244 47.98C30.0764 47.608 29.6084 47.422 29.0204 47.422C28.4324 47.422 27.9644 47.608 27.6164 47.98C27.2684 48.352 27.0944 48.874 27.0944 49.546V55H24.0164V44.956H27.0944V46.288C27.4064 45.844 27.8264 45.496 28.3544 45.244C28.8824 44.98 29.4764 44.848 30.1364 44.848ZM37.5853 55.144C37.0453 55.144 36.6013 54.988 36.2533 54.676C35.9173 54.352 35.7493 53.956 35.7493 53.488C35.7493 53.008 35.9173 52.606 36.2533 52.282C36.6013 51.958 37.0453 51.796 37.5853 51.796C38.1133 51.796 38.5453 51.958 38.8813 52.282C39.2293 52.606 39.4033 53.008 39.4033 53.488C39.4033 53.956 39.2293 54.352 38.8813 54.676C38.5453 54.988 38.1133 55.144 37.5853 55.144ZM49.7738 42.364C51.1058 42.364 52.2698 42.628 53.2658 43.156C54.2618 43.684 55.0298 44.428 55.5698 45.388C56.1218 46.336 56.3978 47.434 56.3978 48.682C56.3978 49.918 56.1218 51.016 55.5698 51.976C55.0298 52.936 54.2558 53.68 53.2478 54.208C52.2518 54.736 51.0938 55 49.7738 55H45.0398V42.364H49.7738ZM49.5758 52.336C50.7398 52.336 51.6458 52.018 52.2938 51.382C52.9418 50.746 53.2658 49.846 53.2658 48.682C53.2658 47.518 52.9418 46.612 52.2938 45.964C51.6458 45.316 50.7398 44.992 49.5758 44.992H48.1178V52.336H49.5758ZM62.69 55.144C61.706 55.144 60.818 54.934 60.026 54.514C59.246 54.094 58.628 53.494 58.172 52.714C57.728 51.934 57.506 51.022 57.506 49.978C57.506 48.946 57.734 48.04 58.19 47.26C58.646 46.468 59.27 45.862 60.062 45.442C60.854 45.022 61.742 44.812 62.726 44.812C63.71 44.812 64.598 45.022 65.39 45.442C66.182 45.862 66.806 46.468 67.262 47.26C67.718 48.04 67.946 48.946 67.946 49.978C67.946 51.01 67.712 51.922 67.244 52.714C66.788 53.494 66.158 54.094 65.354 54.514C64.562 54.934 63.674 55.144 62.69 55.144ZM62.69 52.48C63.278 52.48 63.776 52.264 64.184 51.832C64.604 51.4 64.814 50.782 64.814 49.978C64.814 49.174 64.61 48.556 64.202 48.124C63.806 47.692 63.314 47.476 62.726 47.476C62.126 47.476 61.628 47.692 61.232 48.124C60.836 48.544 60.638 49.162 60.638 49.978C60.638 50.782 60.83 51.4 61.214 51.832C61.61 52.264 62.102 52.48 62.69 52.48ZM75.6989 44.848C76.8749 44.848 77.8109 45.232 78.5069 46C79.2149 46.756 79.5689 47.8 79.5689 49.132V55H76.5089V49.546C76.5089 48.874 76.3349 48.352 75.9869 47.98C75.6389 47.608 75.1709 47.422 74.5829 47.422C73.9949 47.422 73.5269 47.608 73.1789 47.98C72.8309 48.352 72.6569 48.874 72.6569 49.546V55H69.5789V44.956H72.6569V46.288C72.9689 45.844 73.3889 45.496 73.9169 45.244C74.4449 44.98 75.0389 44.848 75.6989 44.848ZM91.1758 49.816C91.1758 50.104 91.1578 50.404 91.1218 50.716H84.1558C84.2038 51.34 84.4018 51.82 84.7498 52.156C85.1098 52.48 85.5478 52.642 86.0638 52.642C86.8318 52.642 87.3658 52.318 87.6658 51.67H90.9418C90.7738 52.33 90.4678 52.924 90.0238 53.452C89.5918 53.98 89.0458 54.394 88.3858 54.694C87.7258 54.994 86.9878 55.144 86.1718 55.144C85.1878 55.144 84.3118 54.934 83.5438 54.514C82.7758 54.094 82.1758 53.494 81.7438 52.714C81.3118 51.934 81.0958 51.022 81.0958 49.978C81.0958 48.934 81.3058 48.022 81.7258 47.242C82.1578 46.462 82.7578 45.862 83.5258 45.442C84.2938 45.022 85.1758 44.812 86.1718 44.812C87.1438 44.812 88.0078 45.016 88.7638 45.424C89.5198 45.832 90.1078 46.414 90.5278 47.17C90.9598 47.926 91.1758 48.808 91.1758 49.816ZM88.0258 49.006C88.0258 48.478 87.8458 48.058 87.4858 47.746C87.1258 47.434 86.6758 47.278 86.1358 47.278C85.6198 47.278 85.1818 47.428 84.8218 47.728C84.4738 48.028 84.2578 48.454 84.1738 49.006H88.0258ZM92.1876 49.978C92.1876 48.934 92.3976 48.022 92.8176 47.242C93.2496 46.462 93.8436 45.862 94.5996 45.442C95.3676 45.022 96.2436 44.812 97.2276 44.812C98.4876 44.812 99.5376 45.142 100.378 45.802C101.23 46.462 101.788 47.392 102.052 48.592H98.7756C98.4996 47.824 97.9656 47.44 97.1736 47.44C96.6096 47.44 96.1596 47.662 95.8236 48.106C95.4876 48.538 95.3196 49.162 95.3196 49.978C95.3196 50.794 95.4876 51.424 95.8236 51.868C96.1596 52.3 96.6096 52.516 97.1736 52.516C97.9656 52.516 98.4996 52.132 98.7756 51.364H102.052C101.788 52.54 101.23 53.464 100.378 54.136C99.5256 54.808 98.4756 55.144 97.2276 55.144C96.2436 55.144 95.3676 54.934 94.5996 54.514C93.8436 54.094 93.2496 53.494 92.8176 52.714C92.3976 51.934 92.1876 51.022 92.1876 49.978ZM111.598 55.144C110.722 55.144 109.942 54.994 109.258 54.694C108.574 54.394 108.034 53.986 107.638 53.47C107.242 52.942 107.02 52.354 106.972 51.706H110.014C110.05 52.054 110.212 52.336 110.5 52.552C110.788 52.768 111.142 52.876 111.562 52.876C111.946 52.876 112.24 52.804 112.444 52.66C112.66 52.504 112.768 52.306 112.768 52.066C112.768 51.778 112.618 51.568 112.318 51.436C112.018 51.292 111.532 51.136 110.86 50.968C110.14 50.8 109.54 50.626 109.06 50.446C108.58 50.254 108.166 49.96 107.818 49.564C107.47 49.156 107.296 48.61 107.296 47.926C107.296 47.35 107.452 46.828 107.764 46.36C108.088 45.88 108.556 45.502 109.168 45.226C109.792 44.95 110.53 44.812 111.382 44.812C112.642 44.812 113.632 45.124 114.352 45.748C115.084 46.372 115.504 47.2 115.612 48.232H112.768C112.72 47.884 112.564 47.608 112.3 47.404C112.048 47.2 111.712 47.098 111.292 47.098C110.932 47.098 110.656 47.17 110.464 47.314C110.272 47.446 110.176 47.632 110.176 47.872C110.176 48.16 110.326 48.376 110.626 48.52C110.938 48.664 111.418 48.808 112.066 48.952C112.81 49.144 113.416 49.336 113.884 49.528C114.352 49.708 114.76 50.008 115.108 50.428C115.468 50.836 115.654 51.388 115.666 52.084C115.666 52.672 115.498 53.2 115.162 53.668C114.838 54.124 114.364 54.484 113.74 54.748C113.128 55.012 112.414 55.144 111.598 55.144ZM127.018 49.816C127.018 50.104 127 50.404 126.964 50.716H119.998C120.046 51.34 120.244 51.82 120.592 52.156C120.952 52.48 121.39 52.642 121.906 52.642C122.674 52.642 123.208 52.318 123.508 51.67H126.784C126.616 52.33 126.31 52.924 125.866 53.452C125.434 53.98 124.888 54.394 124.228 54.694C123.568 54.994 122.83 55.144 122.014 55.144C121.03 55.144 120.154 54.934 119.386 54.514C118.618 54.094 118.018 53.494 117.586 52.714C117.154 51.934 116.938 51.022 116.938 49.978C116.938 48.934 117.148 48.022 117.568 47.242C118 46.462 118.6 45.862 119.368 45.442C120.136 45.022 121.018 44.812 122.014 44.812C122.986 44.812 123.85 45.016 124.606 45.424C125.362 45.832 125.95 46.414 126.37 47.17C126.802 47.926 127.018 48.808 127.018 49.816ZM123.868 49.006C123.868 48.478 123.688 48.058 123.328 47.746C122.968 47.434 122.518 47.278 121.978 47.278C121.462 47.278 121.024 47.428 120.664 47.728C120.316 48.028 120.1 48.454 120.016 49.006H123.868ZM141.457 44.848C142.705 44.848 143.695 45.226 144.427 45.982C145.171 46.738 145.543 47.788 145.543 49.132V55H142.483V49.546C142.483 48.898 142.309 48.4 141.961 48.052C141.625 47.692 141.157 47.512 140.557 47.512C139.957 47.512 139.483 47.692 139.135 48.052C138.799 48.4 138.631 48.898 138.631 49.546V55H135.571V49.546C135.571 48.898 135.397 48.4 135.049 48.052C134.713 47.692 134.245 47.512 133.645 47.512C133.045 47.512 132.571 47.692 132.223 48.052C131.887 48.4 131.719 48.898 131.719 49.546V55H128.641V44.956H131.719V46.216C132.031 45.796 132.439 45.466 132.943 45.226C133.447 44.974 134.017 44.848 134.653 44.848C135.409 44.848 136.081 45.01 136.669 45.334C137.269 45.658 137.737 46.12 138.073 46.72C138.421 46.168 138.895 45.718 139.495 45.37C140.095 45.022 140.749 44.848 141.457 44.848ZM150.774 46.378C151.074 45.91 151.488 45.532 152.016 45.244C152.544 44.956 153.162 44.812 153.87 44.812C154.698 44.812 155.448 45.022 156.12 45.442C156.792 45.862 157.32 46.462 157.704 47.242C158.1 48.022 158.298 48.928 158.298 49.96C158.298 50.992 158.1 51.904 157.704 52.696C157.32 53.476 156.792 54.082 156.12 54.514C155.448 54.934 154.698 55.144 153.87 55.144C153.174 55.144 152.556 55 152.016 54.712C151.488 54.424 151.074 54.052 150.774 53.596V59.788H147.696V44.956H150.774V46.378ZM155.166 49.96C155.166 49.192 154.95 48.592 154.518 48.16C154.098 47.716 153.576 47.494 152.952 47.494C152.34 47.494 151.818 47.716 151.386 48.16C150.966 48.604 150.756 49.21 150.756 49.978C150.756 50.746 150.966 51.352 151.386 51.796C151.818 52.24 152.34 52.462 152.952 52.462C153.564 52.462 154.086 52.24 154.518 51.796C154.95 51.34 155.166 50.728 155.166 49.96ZM169.381 49.816C169.381 50.104 169.363 50.404 169.327 50.716H162.361C162.409 51.34 162.607 51.82 162.955 52.156C163.315 52.48 163.753 52.642 164.269 52.642C165.037 52.642 165.571 52.318 165.871 51.67H169.147C168.979 52.33 168.673 52.924 168.229 53.452C167.797 53.98 167.251 54.394 166.591 54.694C165.931 54.994 165.193 55.144 164.377 55.144C163.393 55.144 162.517 54.934 161.749 54.514C160.981 54.094 160.381 53.494 159.949 52.714C159.517 51.934 159.301 51.022 159.301 49.978C159.301 48.934 159.511 48.022 159.931 47.242C160.363 46.462 160.963 45.862 161.731 45.442C162.499 45.022 163.381 44.812 164.377 44.812C165.349 44.812 166.213 45.016 166.969 45.424C167.725 45.832 168.313 46.414 168.733 47.17C169.165 47.926 169.381 48.808 169.381 49.816ZM166.231 49.006C166.231 48.478 166.051 48.058 165.691 47.746C165.331 47.434 164.881 47.278 164.341 47.278C163.825 47.278 163.387 47.428 163.027 47.728C162.679 48.028 162.463 48.454 162.379 49.006H166.231ZM174.083 46.63C174.443 46.078 174.893 45.646 175.433 45.334C175.973 45.01 176.573 44.848 177.233 44.848V48.106H176.387C175.619 48.106 175.043 48.274 174.659 48.61C174.275 48.934 174.083 49.51 174.083 50.338V55H171.005V44.956H174.083V46.63ZM185.596 41.68V55H182.518V41.68H185.596ZM197.295 49.816C197.295 50.104 197.277 50.404 197.241 50.716H190.275C190.323 51.34 190.521 51.82 190.869 52.156C191.229 52.48 191.667 52.642 192.183 52.642C192.951 52.642 193.485 52.318 193.785 51.67H197.061C196.893 52.33 196.587 52.924 196.143 53.452C195.711 53.98 195.165 54.394 194.505 54.694C193.845 54.994 193.107 55.144 192.291 55.144C191.307 55.144 190.431 54.934 189.663 54.514C188.895 54.094 188.295 53.494 187.863 52.714C187.431 51.934 187.215 51.022 187.215 49.978C187.215 48.934 187.425 48.022 187.845 47.242C188.277 46.462 188.877 45.862 189.645 45.442C190.413 45.022 191.295 44.812 192.291 44.812C193.263 44.812 194.127 45.016 194.883 45.424C195.639 45.832 196.227 46.414 196.647 47.17C197.079 47.926 197.295 48.808 197.295 49.816ZM194.145 49.006C194.145 48.478 193.965 48.058 193.605 47.746C193.245 47.434 192.795 47.278 192.255 47.278C191.739 47.278 191.301 47.428 190.941 47.728C190.593 48.028 190.377 48.454 190.293 49.006H194.145ZM203.491 55.144C202.507 55.144 201.619 54.934 200.827 54.514C200.047 54.094 199.429 53.494 198.973 52.714C198.529 51.934 198.307 51.022 198.307 49.978C198.307 48.946 198.535 48.04 198.991 47.26C199.447 46.468 200.071 45.862 200.863 45.442C201.655 45.022 202.543 44.812 203.527 44.812C204.511 44.812 205.399 45.022 206.191 45.442C206.983 45.862 207.607 46.468 208.063 47.26C208.519 48.04 208.747 48.946 208.747 49.978C208.747 51.01 208.513 51.922 208.045 52.714C207.589 53.494 206.959 54.094 206.155 54.514C205.363 54.934 204.475 55.144 203.491 55.144ZM203.491 52.48C204.079 52.48 204.577 52.264 204.985 51.832C205.405 51.4 205.615 50.782 205.615 49.978C205.615 49.174 205.411 48.556 205.003 48.124C204.607 47.692 204.115 47.476 203.527 47.476C202.927 47.476 202.429 47.692 202.033 48.124C201.637 48.544 201.439 49.162 201.439 49.978C201.439 50.782 201.631 51.4 202.015 51.832C202.411 52.264 202.903 52.48 203.491 52.48ZM224.112 44.956V55H221.034V53.632C220.722 54.076 220.296 54.436 219.756 54.712C219.228 54.976 218.64 55.108 217.992 55.108C217.224 55.108 216.546 54.94 215.958 54.604C215.37 54.256 214.914 53.758 214.59 53.11C214.266 52.462 214.104 51.7 214.104 50.824V44.956H217.164V50.41C217.164 51.082 217.338 51.604 217.686 51.976C218.034 52.348 218.502 52.534 219.09 52.534C219.69 52.534 220.164 52.348 220.512 51.976C220.86 51.604 221.034 51.082 221.034 50.41V44.956H224.112ZM231.921 52.39V55H230.355C229.239 55 228.369 54.73 227.745 54.19C227.121 53.638 226.809 52.744 226.809 51.508V47.512H225.585V44.956H226.809V42.508H229.887V44.956H231.903V47.512H229.887V51.544C229.887 51.844 229.959 52.06 230.103 52.192C230.247 52.324 230.487 52.39 230.823 52.39H231.921ZM240.528 41.68V55H237.45V41.68H240.528ZM247.331 55.144C246.347 55.144 245.459 54.934 244.667 54.514C243.887 54.094 243.269 53.494 242.813 52.714C242.369 51.934 242.147 51.022 242.147 49.978C242.147 48.946 242.375 48.04 242.831 47.26C243.287 46.468 243.911 45.862 244.703 45.442C245.495 45.022 246.383 44.812 247.367 44.812C248.351 44.812 249.239 45.022 250.031 45.442C250.823 45.862 251.447 46.468 251.903 47.26C252.359 48.04 252.587 48.946 252.587 49.978C252.587 51.01 252.353 51.922 251.885 52.714C251.429 53.494 250.799 54.094 249.995 54.514C249.203 54.934 248.315 55.144 247.331 55.144ZM247.331 52.48C247.919 52.48 248.417 52.264 248.825 51.832C249.245 51.4 249.455 50.782 249.455 49.978C249.455 49.174 249.251 48.556 248.843 48.124C248.447 47.692 247.955 47.476 247.367 47.476C246.767 47.476 246.269 47.692 245.873 48.124C245.477 48.544 245.279 49.162 245.279 49.978C245.279 50.782 245.471 51.4 245.855 51.832C246.251 52.264 246.743 52.48 247.331 52.48ZM257.298 46.378C257.586 45.91 258 45.532 258.54 45.244C259.08 44.956 259.698 44.812 260.394 44.812C261.222 44.812 261.972 45.022 262.644 45.442C263.316 45.862 263.844 46.462 264.228 47.242C264.624 48.022 264.822 48.928 264.822 49.96C264.822 50.992 264.624 51.904 264.228 52.696C263.844 53.476 263.316 54.082 262.644 54.514C261.972 54.934 261.222 55.144 260.394 55.144C259.686 55.144 259.068 55.006 258.54 54.73C258.012 54.442 257.598 54.064 257.298 53.596V55H254.22V41.68H257.298V46.378ZM261.69 49.96C261.69 49.192 261.474 48.592 261.042 48.16C260.622 47.716 260.1 47.494 259.476 47.494C258.864 47.494 258.342 47.716 257.91 48.16C257.49 48.604 257.28 49.21 257.28 49.978C257.28 50.746 257.49 51.352 257.91 51.796C258.342 52.24 258.864 52.462 259.476 52.462C260.088 52.462 260.61 52.24 261.042 51.796C261.474 51.34 261.69 50.728 261.69 49.96ZM271.008 55.144C270.024 55.144 269.136 54.934 268.344 54.514C267.564 54.094 266.946 53.494 266.49 52.714C266.046 51.934 265.824 51.022 265.824 49.978C265.824 48.946 266.052 48.04 266.508 47.26C266.964 46.468 267.588 45.862 268.38 45.442C269.172 45.022 270.06 44.812 271.044 44.812C272.028 44.812 272.916 45.022 273.708 45.442C274.5 45.862 275.124 46.468 275.58 47.26C276.036 48.04 276.264 48.946 276.264 49.978C276.264 51.01 276.03 51.922 275.562 52.714C275.106 53.494 274.476 54.094 273.672 54.514C272.88 54.934 271.992 55.144 271.008 55.144ZM271.008 52.48C271.596 52.48 272.094 52.264 272.502 51.832C272.922 51.4 273.132 50.782 273.132 49.978C273.132 49.174 272.928 48.556 272.52 48.124C272.124 47.692 271.632 47.476 271.044 47.476C270.444 47.476 269.946 47.692 269.55 48.124C269.154 48.544 268.956 49.162 268.956 49.978C268.956 50.782 269.148 51.4 269.532 51.832C269.928 52.264 270.42 52.48 271.008 52.48ZM280.975 46.63C281.335 46.078 281.785 45.646 282.325 45.334C282.865 45.01 283.465 44.848 284.125 44.848V48.106H283.279C282.511 48.106 281.935 48.274 281.551 48.61C281.167 48.934 280.975 49.51 280.975 50.338V55H277.897V44.956H280.975V46.63ZM291.194 52.39V55H289.628C288.512 55 287.642 54.73 287.018 54.19C286.394 53.638 286.082 52.744 286.082 51.508V47.512H284.858V44.956H286.082V42.508H289.16V44.956H291.176V47.512H289.16V51.544C289.16 51.844 289.232 52.06 289.376 52.192C289.52 52.324 289.76 52.39 290.096 52.39H291.194ZM294.457 43.912C293.917 43.912 293.473 43.756 293.125 43.444C292.789 43.12 292.621 42.724 292.621 42.256C292.621 41.776 292.789 41.38 293.125 41.068C293.473 40.744 293.917 40.582 294.457 40.582C294.985 40.582 295.417 40.744 295.753 41.068C296.101 41.38 296.275 41.776 296.275 42.256C296.275 42.724 296.101 43.12 295.753 43.444C295.417 43.756 294.985 43.912 294.457 43.912ZM295.987 44.956V55H292.909V44.956H295.987ZM302.304 55.144C301.428 55.144 300.648 54.994 299.964 54.694C299.28 54.394 298.74 53.986 298.344 53.47C297.948 52.942 297.726 52.354 297.678 51.706H300.72C300.756 52.054 300.918 52.336 301.206 52.552C301.494 52.768 301.848 52.876 302.268 52.876C302.652 52.876 302.946 52.804 303.15 52.66C303.366 52.504 303.474 52.306 303.474 52.066C303.474 51.778 303.324 51.568 303.024 51.436C302.724 51.292 302.238 51.136 301.566 50.968C300.846 50.8 300.246 50.626 299.766 50.446C299.286 50.254 298.872 49.96 298.524 49.564C298.176 49.156 298.002 48.61 298.002 47.926C298.002 47.35 298.158 46.828 298.47 46.36C298.794 45.88 299.262 45.502 299.874 45.226C300.498 44.95 301.236 44.812 302.088 44.812C303.348 44.812 304.338 45.124 305.058 45.748C305.79 46.372 306.21 47.2 306.318 48.232H303.474C303.426 47.884 303.27 47.608 303.006 47.404C302.754 47.2 302.418 47.098 301.998 47.098C301.638 47.098 301.362 47.17 301.17 47.314C300.978 47.446 300.882 47.632 300.882 47.872C300.882 48.16 301.032 48.376 301.332 48.52C301.644 48.664 302.124 48.808 302.772 48.952C303.516 49.144 304.122 49.336 304.59 49.528C305.058 49.708 305.466 50.008 305.814 50.428C306.174 50.836 306.36 51.388 306.372 52.084C306.372 52.672 306.204 53.2 305.868 53.668C305.544 54.124 305.07 54.484 304.446 54.748C303.834 55.012 303.12 55.144 302.304 55.144ZM311.457 49.978C311.457 48.934 311.667 48.022 312.087 47.242C312.519 46.462 313.113 45.862 313.869 45.442C314.637 45.022 315.513 44.812 316.497 44.812C317.757 44.812 318.807 45.142 319.647 45.802C320.499 46.462 321.057 47.392 321.321 48.592H318.045C317.769 47.824 317.235 47.44 316.443 47.44C315.879 47.44 315.429 47.662 315.093 48.106C314.757 48.538 314.589 49.162 314.589 49.978C314.589 50.794 314.757 51.424 315.093 51.868C315.429 52.3 315.879 52.516 316.443 52.516C317.235 52.516 317.769 52.132 318.045 51.364H321.321C321.057 52.54 320.499 53.464 319.647 54.136C318.795 54.808 317.745 55.144 316.497 55.144C315.513 55.144 314.637 54.934 313.869 54.514C313.113 54.094 312.519 53.494 312.087 52.714C311.667 51.934 311.457 51.022 311.457 49.978ZM327.54 55.144C326.556 55.144 325.668 54.934 324.876 54.514C324.096 54.094 323.478 53.494 323.022 52.714C322.578 51.934 322.356 51.022 322.356 49.978C322.356 48.946 322.584 48.04 323.04 47.26C323.496 46.468 324.12 45.862 324.912 45.442C325.704 45.022 326.592 44.812 327.576 44.812C328.56 44.812 329.448 45.022 330.24 45.442C331.032 45.862 331.656 46.468 332.112 47.26C332.568 48.04 332.796 48.946 332.796 49.978C332.796 51.01 332.562 51.922 332.094 52.714C331.638 53.494 331.008 54.094 330.204 54.514C329.412 54.934 328.524 55.144 327.54 55.144ZM327.54 52.48C328.128 52.48 328.626 52.264 329.034 51.832C329.454 51.4 329.664 50.782 329.664 49.978C329.664 49.174 329.46 48.556 329.052 48.124C328.656 47.692 328.164 47.476 327.576 47.476C326.976 47.476 326.478 47.692 326.082 48.124C325.686 48.544 325.488 49.162 325.488 49.978C325.488 50.782 325.68 51.4 326.064 51.832C326.46 52.264 326.952 52.48 327.54 52.48ZM340.549 44.848C341.725 44.848 342.661 45.232 343.357 46C344.065 46.756 344.419 47.8 344.419 49.132V55H341.359V49.546C341.359 48.874 341.185 48.352 340.837 47.98C340.489 47.608 340.021 47.422 339.433 47.422C338.845 47.422 338.377 47.608 338.029 47.98C337.681 48.352 337.507 48.874 337.507 49.546V55H334.429V44.956H337.507V46.288C337.819 45.844 338.239 45.496 338.767 45.244C339.295 44.98 339.889 44.848 340.549 44.848ZM345.945 49.96C345.945 48.928 346.137 48.022 346.521 47.242C346.917 46.462 347.451 45.862 348.123 45.442C348.795 45.022 349.545 44.812 350.373 44.812C351.033 44.812 351.633 44.95 352.173 45.226C352.725 45.502 353.157 45.874 353.469 46.342V41.68H356.547V55H353.469V53.56C353.181 54.04 352.767 54.424 352.227 54.712C351.699 55 351.081 55.144 350.373 55.144C349.545 55.144 348.795 54.934 348.123 54.514C347.451 54.082 346.917 53.476 346.521 52.696C346.137 51.904 345.945 50.992 345.945 49.96ZM353.469 49.978C353.469 49.21 353.253 48.604 352.821 48.16C352.401 47.716 351.885 47.494 351.273 47.494C350.661 47.494 350.139 47.716 349.707 48.16C349.287 48.592 349.077 49.192 349.077 49.96C349.077 50.728 349.287 51.34 349.707 51.796C350.139 52.24 350.661 52.462 351.273 52.462C351.885 52.462 352.401 52.24 352.821 51.796C353.253 51.352 353.469 50.746 353.469 49.978ZM360.322 43.912C359.782 43.912 359.338 43.756 358.99 43.444C358.654 43.12 358.486 42.724 358.486 42.256C358.486 41.776 358.654 41.38 358.99 41.068C359.338 40.744 359.782 40.582 360.322 40.582C360.85 40.582 361.282 40.744 361.618 41.068C361.966 41.38 362.14 41.776 362.14 42.256C362.14 42.724 361.966 43.12 361.618 43.444C361.282 43.756 360.85 43.912 360.322 43.912ZM361.852 44.956V55H358.774V44.956H361.852ZM376.899 44.848C378.147 44.848 379.137 45.226 379.869 45.982C380.613 46.738 380.985 47.788 380.985 49.132V55H377.925V49.546C377.925 48.898 377.751 48.4 377.403 48.052C377.067 47.692 376.599 47.512 375.999 47.512C375.399 47.512 374.925 47.692 374.577 48.052C374.241 48.4 374.073 48.898 374.073 49.546V55H371.013V49.546C371.013 48.898 370.839 48.4 370.491 48.052C370.155 47.692 369.687 47.512 369.087 47.512C368.487 47.512 368.013 47.692 367.665 48.052C367.329 48.4 367.161 48.898 367.161 49.546V55H364.083V44.956H367.161V46.216C367.473 45.796 367.881 45.466 368.385 45.226C368.889 44.974 369.459 44.848 370.095 44.848C370.851 44.848 371.523 45.01 372.111 45.334C372.711 45.658 373.179 46.12 373.515 46.72C373.863 46.168 374.337 45.718 374.937 45.37C375.537 45.022 376.191 44.848 376.899 44.848ZM392.605 49.816C392.605 50.104 392.587 50.404 392.551 50.716H385.585C385.633 51.34 385.831 51.82 386.179 52.156C386.539 52.48 386.977 52.642 387.493 52.642C388.261 52.642 388.795 52.318 389.095 51.67H392.371C392.203 52.33 391.897 52.924 391.453 53.452C391.021 53.98 390.475 54.394 389.815 54.694C389.155 54.994 388.417 55.144 387.601 55.144C386.617 55.144 385.741 54.934 384.973 54.514C384.205 54.094 383.605 53.494 383.173 52.714C382.741 51.934 382.525 51.022 382.525 49.978C382.525 48.934 382.735 48.022 383.155 47.242C383.587 46.462 384.187 45.862 384.955 45.442C385.723 45.022 386.605 44.812 387.601 44.812C388.573 44.812 389.437 45.016 390.193 45.424C390.949 45.832 391.537 46.414 391.957 47.17C392.389 47.926 392.605 48.808 392.605 49.816ZM389.455 49.006C389.455 48.478 389.275 48.058 388.915 47.746C388.555 47.434 388.105 47.278 387.565 47.278C387.049 47.278 386.611 47.428 386.251 47.728C385.903 48.028 385.687 48.454 385.603 49.006H389.455ZM400.349 44.848C401.525 44.848 402.461 45.232 403.157 46C403.865 46.756 404.219 47.8 404.219 49.132V55H401.159V49.546C401.159 48.874 400.985 48.352 400.637 47.98C400.289 47.608 399.821 47.422 399.233 47.422C398.645 47.422 398.177 47.608 397.829 47.98C397.481 48.352 397.307 48.874 397.307 49.546V55H394.229V44.956H397.307V46.288C397.619 45.844 398.039 45.496 398.567 45.244C399.095 44.98 399.689 44.848 400.349 44.848ZM411.956 52.39V55H410.39C409.274 55 408.404 54.73 407.78 54.19C407.156 53.638 406.844 52.744 406.844 51.508V47.512H405.62V44.956H406.844V42.508H409.922V44.956H411.938V47.512H409.922V51.544C409.922 51.844 409.994 52.06 410.138 52.192C410.282 52.324 410.522 52.39 410.858 52.39H411.956ZM423.589 44.956V55H420.511V53.632C420.199 54.076 419.773 54.436 419.233 54.712C418.705 54.976 418.117 55.108 417.469 55.108C416.701 55.108 416.023 54.94 415.435 54.604C414.847 54.256 414.391 53.758 414.067 53.11C413.743 52.462 413.581 51.7 413.581 50.824V44.956H416.641V50.41C416.641 51.082 416.815 51.604 417.163 51.976C417.511 52.348 417.979 52.534 418.567 52.534C419.167 52.534 419.641 52.348 419.989 51.976C420.337 51.604 420.511 51.082 420.511 50.41V44.956H423.589ZM438.616 44.848C439.864 44.848 440.854 45.226 441.586 45.982C442.33 46.738 442.702 47.788 442.702 49.132V55H439.642V49.546C439.642 48.898 439.468 48.4 439.12 48.052C438.784 47.692 438.316 47.512 437.716 47.512C437.116 47.512 436.642 47.692 436.294 48.052C435.958 48.4 435.79 48.898 435.79 49.546V55H432.73V49.546C432.73 48.898 432.556 48.4 432.208 48.052C431.872 47.692 431.404 47.512 430.804 47.512C430.204 47.512 429.73 47.692 429.382 48.052C429.046 48.4 428.878 48.898 428.878 49.546V55H425.8V44.956H428.878V46.216C429.19 45.796 429.598 45.466 430.102 45.226C430.606 44.974 431.176 44.848 431.812 44.848C432.568 44.848 433.24 45.01 433.828 45.334C434.428 45.658 434.896 46.12 435.232 46.72C435.58 46.168 436.054 45.718 436.654 45.37C437.254 45.022 437.908 44.848 438.616 44.848ZM446.294 55.144C445.754 55.144 445.31 54.988 444.962 54.676C444.626 54.352 444.458 53.956 444.458 53.488C444.458 53.008 444.626 52.606 444.962 52.282C445.31 51.958 445.754 51.796 446.294 51.796C446.822 51.796 447.254 51.958 447.59 52.282C447.938 52.606 448.112 53.008 448.112 53.488C448.112 53.956 447.938 54.352 447.59 54.676C447.254 54.988 446.822 55.144 446.294 55.144ZM459.725 55.126C458.537 55.126 457.445 54.85 456.449 54.298C455.465 53.746 454.679 52.978 454.091 51.994C453.515 50.998 453.227 49.882 453.227 48.646C453.227 47.41 453.515 46.3 454.091 45.316C454.679 44.332 455.465 43.564 456.449 43.012C457.445 42.46 458.537 42.184 459.725 42.184C460.913 42.184 461.999 42.46 462.983 43.012C463.979 43.564 464.759 44.332 465.323 45.316C465.899 46.3 466.187 47.41 466.187 48.646C466.187 49.882 465.899 50.998 465.323 51.994C464.747 52.978 463.967 53.746 462.983 54.298C461.999 54.85 460.913 55.126 459.725 55.126ZM459.725 52.318C460.733 52.318 461.537 51.982 462.137 51.31C462.749 50.638 463.055 49.75 463.055 48.646C463.055 47.53 462.749 46.642 462.137 45.982C461.537 45.31 460.733 44.974 459.725 44.974C458.705 44.974 457.889 45.304 457.277 45.964C456.677 46.624 456.377 47.518 456.377 48.646C456.377 49.762 456.677 50.656 457.277 51.328C457.889 51.988 458.705 52.318 459.725 52.318ZM470.977 46.63C471.337 46.078 471.787 45.646 472.327 45.334C472.867 45.01 473.467 44.848 474.127 44.848V48.106H473.281C472.513 48.106 471.937 48.274 471.553 48.61C471.169 48.934 470.977 49.51 470.977 50.338V55H467.899V44.956H470.977V46.63ZM474.986 49.978C474.986 48.934 475.196 48.022 475.616 47.242C476.048 46.462 476.642 45.862 477.398 45.442C478.166 45.022 479.042 44.812 480.026 44.812C481.286 44.812 482.336 45.142 483.176 45.802C484.028 46.462 484.586 47.392 484.85 48.592H481.574C481.298 47.824 480.764 47.44 479.972 47.44C479.408 47.44 478.958 47.662 478.622 48.106C478.286 48.538 478.118 49.162 478.118 49.978C478.118 50.794 478.286 51.424 478.622 51.868C478.958 52.3 479.408 52.516 479.972 52.516C480.764 52.516 481.298 52.132 481.574 51.364H484.85C484.586 52.54 484.028 53.464 483.176 54.136C482.324 54.808 481.274 55.144 480.026 55.144C479.042 55.144 478.166 54.934 477.398 54.514C476.642 54.094 476.048 53.494 475.616 52.714C475.196 51.934 474.986 51.022 474.986 49.978ZM488.045 43.912C487.505 43.912 487.061 43.756 486.713 43.444C486.377 43.12 486.209 42.724 486.209 42.256C486.209 41.776 486.377 41.38 486.713 41.068C487.061 40.744 487.505 40.582 488.045 40.582C488.573 40.582 489.005 40.744 489.341 41.068C489.689 41.38 489.863 41.776 489.863 42.256C489.863 42.724 489.689 43.12 489.341 43.444C489.005 43.756 488.573 43.912 488.045 43.912ZM489.575 44.956V55H486.497V44.956H489.575ZM77.5158 92.12L79.6938 84.956H82.9698L79.4058 95H75.6078L72.0438 84.956H75.3378L77.5158 92.12ZM83.6534 89.96C83.6534 88.928 83.8454 88.022 84.2294 87.242C84.6254 86.462 85.1594 85.862 85.8314 85.442C86.5034 85.022 87.2534 84.812 88.0814 84.812C88.7894 84.812 89.4074 84.956 89.9354 85.244C90.4754 85.532 90.8894 85.91 91.1774 86.378V84.956H94.2554V95H91.1774V93.578C90.8774 94.046 90.4574 94.424 89.9174 94.712C89.3894 95 88.7714 95.144 88.0634 95.144C87.2474 95.144 86.5034 94.934 85.8314 94.514C85.1594 94.082 84.6254 93.476 84.2294 92.696C83.8454 91.904 83.6534 90.992 83.6534 89.96ZM91.1774 89.978C91.1774 89.21 90.9614 88.604 90.5294 88.16C90.1094 87.716 89.5934 87.494 88.9814 87.494C88.3694 87.494 87.8474 87.716 87.4154 88.16C86.9954 88.592 86.7854 89.192 86.7854 89.96C86.7854 90.728 86.9954 91.34 87.4154 91.796C87.8474 92.24 88.3694 92.462 88.9814 92.462C89.5934 92.462 90.1094 92.24 90.5294 91.796C90.9614 91.352 91.1774 90.746 91.1774 89.978ZM99.5602 86.63C99.9202 86.078 100.37 85.646 100.91 85.334C101.45 85.01 102.05 84.848 102.71 84.848V88.106H101.864C101.096 88.106 100.52 88.274 100.136 88.61C99.7522 88.934 99.5602 89.51 99.5602 90.338V95H96.4822V84.956H99.5602V86.63ZM105.729 83.912C105.189 83.912 104.745 83.756 104.397 83.444C104.061 83.12 103.893 82.724 103.893 82.256C103.893 81.776 104.061 81.38 104.397 81.068C104.745 80.744 105.189 80.582 105.729 80.582C106.257 80.582 106.689 80.744 107.025 81.068C107.373 81.38 107.547 81.776 107.547 82.256C107.547 82.724 107.373 83.12 107.025 83.444C106.689 83.756 106.257 83.912 105.729 83.912ZM107.259 84.956V95H104.181V84.956H107.259ZM119.408 84.956V95H116.33V93.632C116.018 94.076 115.592 94.436 115.052 94.712C114.524 94.976 113.936 95.108 113.288 95.108C112.52 95.108 111.842 94.94 111.254 94.604C110.666 94.256 110.21 93.758 109.886 93.11C109.562 92.462 109.4 91.7 109.4 90.824V84.956H112.46V90.41C112.46 91.082 112.634 91.604 112.982 91.976C113.33 92.348 113.798 92.534 114.386 92.534C114.986 92.534 115.46 92.348 115.808 91.976C116.156 91.604 116.33 91.082 116.33 90.41V84.956H119.408ZM125.705 95.144C124.829 95.144 124.049 94.994 123.365 94.694C122.681 94.394 122.141 93.986 121.745 93.47C121.349 92.942 121.127 92.354 121.079 91.706H124.121C124.157 92.054 124.319 92.336 124.607 92.552C124.895 92.768 125.249 92.876 125.669 92.876C126.053 92.876 126.347 92.804 126.551 92.66C126.767 92.504 126.875 92.306 126.875 92.066C126.875 91.778 126.725 91.568 126.425 91.436C126.125 91.292 125.639 91.136 124.967 90.968C124.247 90.8 123.647 90.626 123.167 90.446C122.687 90.254 122.273 89.96 121.925 89.564C121.577 89.156 121.403 88.61 121.403 87.926C121.403 87.35 121.559 86.828 121.871 86.36C122.195 85.88 122.663 85.502 123.275 85.226C123.899 84.95 124.637 84.812 125.489 84.812C126.749 84.812 127.739 85.124 128.459 85.748C129.191 86.372 129.611 87.2 129.719 88.232H126.875C126.827 87.884 126.671 87.608 126.407 87.404C126.155 87.2 125.819 87.098 125.399 87.098C125.039 87.098 124.763 87.17 124.571 87.314C124.379 87.446 124.283 87.632 124.283 87.872C124.283 88.16 124.433 88.376 124.733 88.52C125.045 88.664 125.525 88.808 126.173 88.952C126.917 89.144 127.523 89.336 127.991 89.528C128.459 89.708 128.867 90.008 129.215 90.428C129.575 90.836 129.761 91.388 129.773 92.084C129.773 92.672 129.605 93.2 129.269 93.668C128.945 94.124 128.471 94.484 127.847 94.748C127.235 95.012 126.521 95.144 125.705 95.144ZM141.59 84.848C142.766 84.848 143.702 85.232 144.398 86C145.106 86.756 145.46 87.8 145.46 89.132V95H142.4V89.546C142.4 88.874 142.226 88.352 141.878 87.98C141.53 87.608 141.062 87.422 140.474 87.422C139.886 87.422 139.418 87.608 139.07 87.98C138.722 88.352 138.548 88.874 138.548 89.546V95H135.47V84.956H138.548V86.288C138.86 85.844 139.28 85.496 139.808 85.244C140.336 84.98 140.93 84.848 141.59 84.848ZM146.987 89.96C146.987 88.928 147.179 88.022 147.563 87.242C147.959 86.462 148.493 85.862 149.165 85.442C149.837 85.022 150.587 84.812 151.415 84.812C152.123 84.812 152.741 84.956 153.269 85.244C153.809 85.532 154.223 85.91 154.511 86.378V84.956H157.589V95H154.511V93.578C154.211 94.046 153.791 94.424 153.251 94.712C152.723 95 152.105 95.144 151.397 95.144C150.581 95.144 149.837 94.934 149.165 94.514C148.493 94.082 147.959 93.476 147.563 92.696C147.179 91.904 146.987 90.992 146.987 89.96ZM154.511 89.978C154.511 89.21 154.295 88.604 153.863 88.16C153.443 87.716 152.927 87.494 152.315 87.494C151.703 87.494 151.181 87.716 150.749 88.16C150.329 88.592 150.119 89.192 150.119 89.96C150.119 90.728 150.329 91.34 150.749 91.796C151.181 92.24 151.703 92.462 152.315 92.462C152.927 92.462 153.443 92.24 153.863 91.796C154.295 91.352 154.511 90.746 154.511 89.978ZM165.414 92.39V95H163.848C162.732 95 161.862 94.73 161.238 94.19C160.614 93.638 160.302 92.744 160.302 91.508V87.512H159.078V84.956H160.302V82.508H163.38V84.956H165.396V87.512H163.38V91.544C163.38 91.844 163.452 92.06 163.596 92.192C163.74 92.324 163.98 92.39 164.316 92.39H165.414ZM171.701 95.144C170.717 95.144 169.829 94.934 169.037 94.514C168.257 94.094 167.639 93.494 167.183 92.714C166.739 91.934 166.517 91.022 166.517 89.978C166.517 88.946 166.745 88.04 167.201 87.26C167.657 86.468 168.281 85.862 169.073 85.442C169.865 85.022 170.753 84.812 171.737 84.812C172.721 84.812 173.609 85.022 174.401 85.442C175.193 85.862 175.817 86.468 176.273 87.26C176.729 88.04 176.957 88.946 176.957 89.978C176.957 91.01 176.723 91.922 176.255 92.714C175.799 93.494 175.169 94.094 174.365 94.514C173.573 94.934 172.685 95.144 171.701 95.144ZM171.701 92.48C172.289 92.48 172.787 92.264 173.195 91.832C173.615 91.4 173.825 90.782 173.825 89.978C173.825 89.174 173.621 88.556 173.213 88.124C172.817 87.692 172.325 87.476 171.737 87.476C171.137 87.476 170.639 87.692 170.243 88.124C169.847 88.544 169.649 89.162 169.649 89.978C169.649 90.782 169.841 91.4 170.225 91.832C170.621 92.264 171.113 92.48 171.701 92.48ZM177.978 89.996C177.978 89 178.182 88.112 178.59 87.332C179.01 86.552 179.568 85.946 180.264 85.514C180.972 85.07 181.74 84.848 182.568 84.848C183.204 84.848 183.774 84.962 184.278 85.19C184.782 85.406 185.19 85.712 185.502 86.108V84.956H188.58V99.788H185.502V93.74C185.154 94.16 184.728 94.496 184.224 94.748C183.732 95 183.168 95.126 182.532 95.126C181.716 95.126 180.96 94.91 180.264 94.478C179.568 94.046 179.01 93.44 178.59 92.66C178.182 91.88 177.978 90.992 177.978 89.996ZM185.502 89.978C185.502 89.438 185.394 88.988 185.178 88.628C184.974 88.256 184.704 87.98 184.368 87.8C184.032 87.608 183.678 87.512 183.306 87.512C182.946 87.512 182.598 87.608 182.262 87.8C181.926 87.98 181.65 88.256 181.434 88.628C181.218 89 181.11 89.456 181.11 89.996C181.11 90.536 181.218 90.992 181.434 91.364C181.65 91.724 181.926 92 182.262 92.192C182.598 92.372 182.946 92.462 183.306 92.462C183.666 92.462 184.014 92.372 184.35 92.192C184.698 92 184.974 91.718 185.178 91.346C185.394 90.974 185.502 90.518 185.502 89.978ZM200.724 84.956V95H197.646V93.632C197.334 94.076 196.908 94.436 196.368 94.712C195.84 94.976 195.252 95.108 194.604 95.108C193.836 95.108 193.158 94.94 192.57 94.604C191.982 94.256 191.526 93.758 191.202 93.11C190.878 92.462 190.716 91.7 190.716 90.824V84.956H193.776V90.41C193.776 91.082 193.95 91.604 194.298 91.976C194.646 92.348 195.114 92.534 195.702 92.534C196.302 92.534 196.776 92.348 197.124 91.976C197.472 91.604 197.646 91.082 197.646 90.41V84.956H200.724ZM212.403 89.816C212.403 90.104 212.385 90.404 212.349 90.716H205.383C205.431 91.34 205.629 91.82 205.977 92.156C206.337 92.48 206.775 92.642 207.291 92.642C208.059 92.642 208.593 92.318 208.893 91.67H212.169C212.001 92.33 211.695 92.924 211.251 93.452C210.819 93.98 210.273 94.394 209.613 94.694C208.953 94.994 208.215 95.144 207.399 95.144C206.415 95.144 205.539 94.934 204.771 94.514C204.003 94.094 203.403 93.494 202.971 92.714C202.539 91.934 202.323 91.022 202.323 89.978C202.323 88.934 202.533 88.022 202.953 87.242C203.385 86.462 203.985 85.862 204.753 85.442C205.521 85.022 206.403 84.812 207.399 84.812C208.371 84.812 209.235 85.016 209.991 85.424C210.747 85.832 211.335 86.414 211.755 87.17C212.187 87.926 212.403 88.808 212.403 89.816ZM209.253 89.006C209.253 88.478 209.073 88.058 208.713 87.746C208.353 87.434 207.903 87.278 207.363 87.278C206.847 87.278 206.409 87.428 206.049 87.728C205.701 88.028 205.485 88.454 205.401 89.006H209.253ZM220.92 86.378C221.22 85.91 221.634 85.532 222.162 85.244C222.69 84.956 223.308 84.812 224.016 84.812C224.844 84.812 225.594 85.022 226.266 85.442C226.938 85.862 227.466 86.462 227.85 87.242C228.246 88.022 228.444 88.928 228.444 89.96C228.444 90.992 228.246 91.904 227.85 92.696C227.466 93.476 226.938 94.082 226.266 94.514C225.594 94.934 224.844 95.144 224.016 95.144C223.32 95.144 222.702 95 222.162 94.712C221.634 94.424 221.22 94.052 220.92 93.596V99.788H217.842V84.956H220.92V86.378ZM225.312 89.96C225.312 89.192 225.096 88.592 224.664 88.16C224.244 87.716 223.722 87.494 223.098 87.494C222.486 87.494 221.964 87.716 221.532 88.16C221.112 88.604 220.902 89.21 220.902 89.978C220.902 90.746 221.112 91.352 221.532 91.796C221.964 92.24 222.486 92.462 223.098 92.462C223.71 92.462 224.232 92.24 224.664 91.796C225.096 91.34 225.312 90.728 225.312 89.96ZM239.526 89.816C239.526 90.104 239.508 90.404 239.472 90.716H232.506C232.554 91.34 232.752 91.82 233.1 92.156C233.46 92.48 233.898 92.642 234.414 92.642C235.182 92.642 235.716 92.318 236.016 91.67H239.292C239.124 92.33 238.818 92.924 238.374 93.452C237.942 93.98 237.396 94.394 236.736 94.694C236.076 94.994 235.338 95.144 234.522 95.144C233.538 95.144 232.662 94.934 231.894 94.514C231.126 94.094 230.526 93.494 230.094 92.714C229.662 91.934 229.446 91.022 229.446 89.978C229.446 88.934 229.656 88.022 230.076 87.242C230.508 86.462 231.108 85.862 231.876 85.442C232.644 85.022 233.526 84.812 234.522 84.812C235.494 84.812 236.358 85.016 237.114 85.424C237.87 85.832 238.458 86.414 238.878 87.17C239.31 87.926 239.526 88.808 239.526 89.816ZM236.376 89.006C236.376 88.478 236.196 88.058 235.836 87.746C235.476 87.434 235.026 87.278 234.486 87.278C233.97 87.278 233.532 87.428 233.172 87.728C232.824 88.028 232.608 88.454 232.524 89.006H236.376ZM247.27 84.848C248.446 84.848 249.382 85.232 250.078 86C250.786 86.756 251.14 87.8 251.14 89.132V95H248.08V89.546C248.08 88.874 247.906 88.352 247.558 87.98C247.21 87.608 246.742 87.422 246.154 87.422C245.566 87.422 245.098 87.608 244.75 87.98C244.402 88.352 244.228 88.874 244.228 89.546V95H241.15V84.956H244.228V86.288C244.54 85.844 244.96 85.496 245.488 85.244C246.016 84.98 246.61 84.848 247.27 84.848ZM252.667 89.96C252.667 88.928 252.859 88.022 253.243 87.242C253.639 86.462 254.173 85.862 254.845 85.442C255.517 85.022 256.267 84.812 257.095 84.812C257.803 84.812 258.421 84.956 258.949 85.244C259.489 85.532 259.903 85.91 260.191 86.378V84.956H263.269V95H260.191V93.578C259.891 94.046 259.471 94.424 258.931 94.712C258.403 95 257.785 95.144 257.077 95.144C256.261 95.144 255.517 94.934 254.845 94.514C254.173 94.082 253.639 93.476 253.243 92.696C252.859 91.904 252.667 90.992 252.667 89.96ZM260.191 89.978C260.191 89.21 259.975 88.604 259.543 88.16C259.123 87.716 258.607 87.494 257.995 87.494C257.383 87.494 256.861 87.716 256.429 88.16C256.009 88.592 255.799 89.192 255.799 89.96C255.799 90.728 256.009 91.34 256.429 91.796C256.861 92.24 257.383 92.462 257.995 92.462C258.607 92.462 259.123 92.24 259.543 91.796C259.975 91.352 260.191 90.746 260.191 89.978ZM271.094 92.39V95H269.528C268.412 95 267.542 94.73 266.918 94.19C266.294 93.638 265.982 92.744 265.982 91.508V87.512H264.758V84.956H265.982V82.508H269.06V84.956H271.076V87.512H269.06V91.544C269.06 91.844 269.132 92.06 269.276 92.192C269.42 92.324 269.66 92.39 269.996 92.39H271.094ZM274.356 83.912C273.816 83.912 273.372 83.756 273.024 83.444C272.688 83.12 272.52 82.724 272.52 82.256C272.52 81.776 272.688 81.38 273.024 81.068C273.372 80.744 273.816 80.582 274.356 80.582C274.884 80.582 275.316 80.744 275.652 81.068C276 81.38 276.174 81.776 276.174 82.256C276.174 82.724 276 83.12 275.652 83.444C275.316 83.756 274.884 83.912 274.356 83.912ZM275.886 84.956V95H272.808V84.956H275.886ZM281.195 86.378C281.483 85.91 281.897 85.532 282.437 85.244C282.977 84.956 283.595 84.812 284.291 84.812C285.119 84.812 285.869 85.022 286.541 85.442C287.213 85.862 287.741 86.462 288.125 87.242C288.521 88.022 288.719 88.928 288.719 89.96C288.719 90.992 288.521 91.904 288.125 92.696C287.741 93.476 287.213 94.082 286.541 94.514C285.869 94.934 285.119 95.144 284.291 95.144C283.583 95.144 282.965 95.006 282.437 94.73C281.909 94.442 281.495 94.064 281.195 93.596V95H278.117V81.68H281.195V86.378ZM285.587 89.96C285.587 89.192 285.371 88.592 284.939 88.16C284.519 87.716 283.997 87.494 283.373 87.494C282.761 87.494 282.239 87.716 281.807 88.16C281.387 88.604 281.177 89.21 281.177 89.978C281.177 90.746 281.387 91.352 281.807 91.796C282.239 92.24 282.761 92.462 283.373 92.462C283.985 92.462 284.507 92.24 284.939 91.796C285.371 91.34 285.587 90.728 285.587 89.96ZM300.252 84.956V95H297.174V93.632C296.862 94.076 296.436 94.436 295.896 94.712C295.368 94.976 294.78 95.108 294.132 95.108C293.364 95.108 292.686 94.94 292.098 94.604C291.51 94.256 291.054 93.758 290.73 93.11C290.406 92.462 290.244 91.7 290.244 90.824V84.956H293.304V90.41C293.304 91.082 293.478 91.604 293.826 91.976C294.174 92.348 294.642 92.534 295.23 92.534C295.83 92.534 296.304 92.348 296.652 91.976C297 91.604 297.174 91.082 297.174 90.41V84.956H300.252ZM306.549 95.144C305.673 95.144 304.893 94.994 304.209 94.694C303.525 94.394 302.985 93.986 302.589 93.47C302.193 92.942 301.971 92.354 301.923 91.706H304.965C305.001 92.054 305.163 92.336 305.451 92.552C305.739 92.768 306.093 92.876 306.513 92.876C306.897 92.876 307.191 92.804 307.395 92.66C307.611 92.504 307.719 92.306 307.719 92.066C307.719 91.778 307.569 91.568 307.269 91.436C306.969 91.292 306.483 91.136 305.811 90.968C305.091 90.8 304.491 90.626 304.011 90.446C303.531 90.254 303.117 89.96 302.769 89.564C302.421 89.156 302.247 88.61 302.247 87.926C302.247 87.35 302.403 86.828 302.715 86.36C303.039 85.88 303.507 85.502 304.119 85.226C304.743 84.95 305.481 84.812 306.333 84.812C307.593 84.812 308.583 85.124 309.303 85.748C310.035 86.372 310.455 87.2 310.563 88.232H307.719C307.671 87.884 307.515 87.608 307.251 87.404C306.999 87.2 306.663 87.098 306.243 87.098C305.883 87.098 305.607 87.17 305.415 87.314C305.223 87.446 305.127 87.632 305.127 87.872C305.127 88.16 305.277 88.376 305.577 88.52C305.889 88.664 306.369 88.808 307.017 88.952C307.761 89.144 308.367 89.336 308.835 89.528C309.303 89.708 309.711 90.008 310.059 90.428C310.419 90.836 310.605 91.388 310.617 92.084C310.617 92.672 310.449 93.2 310.113 93.668C309.789 94.124 309.315 94.484 308.691 94.748C308.079 95.012 307.365 95.144 306.549 95.144ZM325.782 89.816C325.782 90.104 325.764 90.404 325.728 90.716H318.762C318.81 91.34 319.008 91.82 319.356 92.156C319.716 92.48 320.154 92.642 320.67 92.642C321.438 92.642 321.972 92.318 322.272 91.67H325.548C325.38 92.33 325.074 92.924 324.63 93.452C324.198 93.98 323.652 94.394 322.992 94.694C322.332 94.994 321.594 95.144 320.778 95.144C319.794 95.144 318.918 94.934 318.15 94.514C317.382 94.094 316.782 93.494 316.35 92.714C315.918 91.934 315.702 91.022 315.702 89.978C315.702 88.934 315.912 88.022 316.332 87.242C316.764 86.462 317.364 85.862 318.132 85.442C318.9 85.022 319.782 84.812 320.778 84.812C321.75 84.812 322.614 85.016 323.37 85.424C324.126 85.832 324.714 86.414 325.134 87.17C325.566 87.926 325.782 88.808 325.782 89.816ZM322.632 89.006C322.632 88.478 322.452 88.058 322.092 87.746C321.732 87.434 321.282 87.278 320.742 87.278C320.226 87.278 319.788 87.428 319.428 87.728C319.08 88.028 318.864 88.454 318.78 89.006H322.632ZM333.004 92.39V95H331.438C330.322 95 329.452 94.73 328.828 94.19C328.204 93.638 327.892 92.744 327.892 91.508V87.512H326.668V84.956H327.892V82.508H330.97V84.956H332.986V87.512H330.97V91.544C330.97 91.844 331.042 92.06 331.186 92.192C331.33 92.324 331.57 92.39 331.906 92.39H333.004ZM351.349 84.848C352.597 84.848 353.587 85.226 354.319 85.982C355.063 86.738 355.435 87.788 355.435 89.132V95H352.375V89.546C352.375 88.898 352.201 88.4 351.853 88.052C351.517 87.692 351.049 87.512 350.449 87.512C349.849 87.512 349.375 87.692 349.027 88.052C348.691 88.4 348.523 88.898 348.523 89.546V95H345.463V89.546C345.463 88.898 345.289 88.4 344.941 88.052C344.605 87.692 344.137 87.512 343.537 87.512C342.937 87.512 342.463 87.692 342.115 88.052C341.779 88.4 341.611 88.898 341.611 89.546V95H338.533V84.956H341.611V86.216C341.923 85.796 342.331 85.466 342.835 85.226C343.339 84.974 343.909 84.848 344.545 84.848C345.301 84.848 345.973 85.01 346.561 85.334C347.161 85.658 347.629 86.12 347.965 86.72C348.313 86.168 348.787 85.718 349.387 85.37C349.987 85.022 350.641 84.848 351.349 84.848ZM356.976 89.96C356.976 88.928 357.168 88.022 357.552 87.242C357.948 86.462 358.482 85.862 359.154 85.442C359.826 85.022 360.576 84.812 361.404 84.812C362.112 84.812 362.73 84.956 363.258 85.244C363.798 85.532 364.212 85.91 364.5 86.378V84.956H367.578V95H364.5V93.578C364.2 94.046 363.78 94.424 363.24 94.712C362.712 95 362.094 95.144 361.386 95.144C360.57 95.144 359.826 94.934 359.154 94.514C358.482 94.082 357.948 93.476 357.552 92.696C357.168 91.904 356.976 90.992 356.976 89.96ZM364.5 89.978C364.5 89.21 364.284 88.604 363.852 88.16C363.432 87.716 362.916 87.494 362.304 87.494C361.692 87.494 361.17 87.716 360.738 88.16C360.318 88.592 360.108 89.192 360.108 89.96C360.108 90.728 360.318 91.34 360.738 91.796C361.17 92.24 361.692 92.462 362.304 92.462C362.916 92.462 363.432 92.24 363.852 91.796C364.284 91.352 364.5 90.746 364.5 89.978ZM373.62 84.812C374.328 84.812 374.946 84.956 375.474 85.244C376.014 85.532 376.428 85.91 376.716 86.378V84.956H379.794V94.982C379.794 95.906 379.608 96.74 379.236 97.484C378.876 98.24 378.318 98.84 377.562 99.284C376.818 99.728 375.888 99.95 374.772 99.95C373.284 99.95 372.078 99.596 371.154 98.888C370.23 98.192 369.702 97.244 369.57 96.044H372.612C372.708 96.428 372.936 96.728 373.296 96.944C373.656 97.172 374.1 97.286 374.628 97.286C375.264 97.286 375.768 97.1 376.14 96.728C376.524 96.368 376.716 95.786 376.716 94.982V93.56C376.416 94.028 376.002 94.412 375.474 94.712C374.946 95 374.328 95.144 373.62 95.144C372.792 95.144 372.042 94.934 371.37 94.514C370.698 94.082 370.164 93.476 369.768 92.696C369.384 91.904 369.192 90.992 369.192 89.96C369.192 88.928 369.384 88.022 369.768 87.242C370.164 86.462 370.698 85.862 371.37 85.442C372.042 85.022 372.792 84.812 373.62 84.812ZM376.716 89.978C376.716 89.21 376.5 88.604 376.068 88.16C375.648 87.716 375.132 87.494 374.52 87.494C373.908 87.494 373.386 87.716 372.954 88.16C372.534 88.592 372.324 89.192 372.324 89.96C372.324 90.728 372.534 91.34 372.954 91.796C373.386 92.24 373.908 92.462 374.52 92.462C375.132 92.462 375.648 92.24 376.068 91.796C376.5 91.352 376.716 90.746 376.716 89.978ZM388.141 84.848C389.317 84.848 390.253 85.232 390.949 86C391.657 86.756 392.011 87.8 392.011 89.132V95H388.951V89.546C388.951 88.874 388.777 88.352 388.429 87.98C388.081 87.608 387.613 87.422 387.025 87.422C386.437 87.422 385.969 87.608 385.621 87.98C385.273 88.352 385.099 88.874 385.099 89.546V95H382.021V84.956H385.099V86.288C385.411 85.844 385.831 85.496 386.359 85.244C386.887 84.98 387.481 84.848 388.141 84.848ZM395.698 83.912C395.158 83.912 394.714 83.756 394.366 83.444C394.03 83.12 393.862 82.724 393.862 82.256C393.862 81.776 394.03 81.38 394.366 81.068C394.714 80.744 395.158 80.582 395.698 80.582C396.226 80.582 396.658 80.744 396.994 81.068C397.342 81.38 397.516 81.776 397.516 82.256C397.516 82.724 397.342 83.12 396.994 83.444C396.658 83.756 396.226 83.912 395.698 83.912ZM397.228 84.956V95H394.15V84.956H397.228ZM403.545 95.144C402.669 95.144 401.889 94.994 401.205 94.694C400.521 94.394 399.981 93.986 399.585 93.47C399.189 92.942 398.967 92.354 398.919 91.706H401.961C401.997 92.054 402.159 92.336 402.447 92.552C402.735 92.768 403.089 92.876 403.509 92.876C403.893 92.876 404.187 92.804 404.391 92.66C404.607 92.504 404.715 92.306 404.715 92.066C404.715 91.778 404.565 91.568 404.265 91.436C403.965 91.292 403.479 91.136 402.807 90.968C402.087 90.8 401.487 90.626 401.007 90.446C400.527 90.254 400.113 89.96 399.765 89.564C399.417 89.156 399.243 88.61 399.243 87.926C399.243 87.35 399.399 86.828 399.711 86.36C400.035 85.88 400.503 85.502 401.115 85.226C401.739 84.95 402.477 84.812 403.329 84.812C404.589 84.812 405.579 85.124 406.299 85.748C407.031 86.372 407.451 87.2 407.559 88.232H404.715C404.667 87.884 404.511 87.608 404.247 87.404C403.995 87.2 403.659 87.098 403.239 87.098C402.879 87.098 402.603 87.17 402.411 87.314C402.219 87.446 402.123 87.632 402.123 87.872C402.123 88.16 402.273 88.376 402.573 88.52C402.885 88.664 403.365 88.808 404.013 88.952C404.757 89.144 405.363 89.336 405.831 89.528C406.299 89.708 406.707 90.008 407.055 90.428C407.415 90.836 407.601 91.388 407.613 92.084C407.613 92.672 407.445 93.2 407.109 93.668C406.785 94.124 406.311 94.484 405.687 94.748C405.075 95.012 404.361 95.144 403.545 95.144ZM410.198 82.364H413.348L411.332 87.188H409.262L410.198 82.364ZM414.284 82.364H417.434L415.418 87.188H413.348L414.284 82.364Z" fill="url(#paint0_linear)"/>
<defs>
<linearGradient id="paint0_linear" x1="270.6" y1="-22.4167" x2="272.11" y2="185.046" gradientUnits="userSpaceOnUse">
<stop stop-color="#FD749B"/>
<stop offset="1" stop-color="#281AC8"/>
</linearGradient>
</defs>
</svg>
